<?xml version="1.0" encoding="UTF-8"?>
<svg width="1034" height="1109" viewBox="0 0 1034 1109" xmlns="http://www.w3.org/2000/svg" role="img" aria-label="Royal Crown Bearings RCB logo">
  <title>Royal Crown Bearings RCB Logo</title>
  <path d="M 229 790 L 239 829 L 263 881 L 292 922 L 325 956 L 363 985 L 400 1005 L 441 1020 L 489 1029 L 529 1030 L 575 1024 L 623 1009 L 666 987 L 709 955 L 740 923 L 770 880 L 789 841 L 663 839 L 636 868 L 591 897 L 541 912 L 498 913 L 463 906 L 426 890 L 396 869 L 367 839 L 269 839 Z M 591 956 L 592 957 L 592 961 L 593 962 L 593 964 L 594 965 L 594 967 L 595 968 L 595 970 L 597 972 L 597 973 L 598 974 L 598 975 L 600 977 L 600 981 L 599 982 L 597 982 L 596 983 L 594 983 L 593 984 L 591 984 L 590 985 L 588 985 L 587 986 L 585 986 L 584 987 L 582 987 L 581 988 L 578 988 L 577 989 L 574 989 L 573 990 L 570 990 L 569 991 L 565 991 L 564 992 L 561 992 L 560 991 L 560 985 L 561 984 L 561 981 L 560 980 L 560 974 L 559 973 L 559 970 L 558 969 L 558 965 L 559 964 L 560 964 L 561 963 L 566 963 L 567 962 L 570 962 L 571 961 L 574 961 L 575 960 L 577 960 L 578 959 L 580 959 L 581 958 L 583 958 L 584 957 L 586 957 L 587 956 Z M 439 955 L 441 955 L 442 956 L 444 956 L 445 957 L 447 957 L 448 958 L 450 958 L 451 959 L 453 959 L 454 960 L 457 960 L 458 961 L 461 961 L 462 962 L 465 962 L 466 963 L 470 963 L 471 964 L 471 966 L 470 967 L 470 969 L 469 970 L 469 973 L 468 974 L 468 980 L 467 981 L 467 983 L 468 984 L 468 991 L 467 992 L 465 992 L 464 991 L 461 991 L 460 990 L 457 990 L 456 989 L 453 989 L 452 988 L 449 988 L 448 987 L 446 987 L 445 986 L 443 986 L 442 985 L 440 985 L 439 984 L 437 984 L 436 983 L 434 983 L 433 982 L 431 982 L 429 980 L 429 977 L 432 974 L 432 973 L 433 972 L 433 971 L 434 970 L 434 969 L 435 968 L 435 966 L 436 965 L 436 963 L 437 962 L 437 959 L 438 958 L 438 956 Z M 508 951 L 521 951 L 522 952 L 524 952 L 525 953 L 527 953 L 528 954 L 531 955 L 533 957 L 534 957 L 543 966 L 543 967 L 545 969 L 545 970 L 547 973 L 547 975 L 548 976 L 548 978 L 549 979 L 549 992 L 548 993 L 548 996 L 547 997 L 547 999 L 546 1000 L 546 1002 L 544 1004 L 544 1005 L 542 1007 L 542 1008 L 535 1015 L 534 1015 L 532 1017 L 531 1017 L 526 1020 L 524 1020 L 523 1021 L 519 1021 L 518 1022 L 510 1022 L 509 1021 L 505 1021 L 504 1020 L 503 1020 L 502 1019 L 500 1019 L 499 1018 L 498 1018 L 496 1016 L 495 1016 L 485 1006 L 485 1005 L 484 1004 L 484 1003 L 481 998 L 481 995 L 480 994 L 480 979 L 481 978 L 481 975 L 482 974 L 482 972 L 483 971 L 483 970 L 485 968 L 485 967 L 487 965 L 487 964 L 493 958 L 494 958 L 496 956 L 497 956 L 502 953 L 504 953 L 505 952 L 507 952 Z M 634 917 L 643 917 L 644 918 L 647 918 L 648 919 L 650 919 L 651 920 L 652 920 L 654 922 L 655 922 L 657 924 L 658 924 L 665 931 L 665 932 L 667 934 L 667 935 L 669 938 L 669 940 L 670 941 L 670 943 L 671 944 L 671 958 L 670 959 L 670 962 L 669 963 L 669 964 L 668 965 L 668 966 L 667 967 L 666 970 L 656 980 L 655 980 L 654 981 L 653 981 L 652 982 L 651 982 L 648 984 L 645 984 L 644 985 L 640 985 L 639 986 L 636 986 L 635 985 L 630 985 L 629 984 L 626 984 L 625 983 L 624 983 L 623 982 L 622 982 L 621 981 L 618 980 L 608 970 L 608 969 L 607 968 L 607 967 L 605 964 L 605 962 L 604 961 L 604 958 L 603 957 L 603 947 L 604 946 L 604 943 L 605 942 L 605 940 L 606 939 L 606 938 L 607 937 L 608 934 L 610 932 L 610 931 L 617 924 L 618 924 L 620 922 L 621 922 L 622 921 L 623 921 L 626 919 L 628 919 L 629 918 L 633 918 Z M 387 917 L 398 917 L 399 918 L 402 918 L 403 919 L 405 919 L 406 920 L 409 921 L 411 923 L 412 923 L 420 931 L 420 932 L 422 934 L 422 935 L 423 936 L 423 937 L 425 940 L 425 943 L 426 944 L 426 949 L 427 950 L 427 953 L 426 954 L 426 959 L 425 960 L 425 963 L 424 964 L 423 967 L 421 969 L 421 970 L 419 972 L 419 973 L 414 978 L 413 978 L 408 982 L 406 982 L 405 983 L 404 983 L 403 984 L 401 984 L 400 985 L 385 985 L 384 984 L 381 984 L 380 983 L 379 983 L 378 982 L 377 982 L 376 981 L 373 980 L 364 971 L 364 970 L 363 969 L 363 968 L 362 967 L 362 966 L 360 963 L 360 961 L 359 960 L 359 957 L 358 956 L 358 946 L 359 945 L 359 942 L 360 941 L 360 939 L 361 938 L 361 937 L 362 936 L 363 933 L 366 930 L 366 929 L 371 924 L 372 924 L 374 922 L 375 922 L 376 921 L 377 921 L 380 919 L 382 919 L 383 918 L 386 918 Z M 690 893 L 692 895 L 692 896 L 696 900 L 697 900 L 700 903 L 701 903 L 703 905 L 704 905 L 705 906 L 705 909 L 704 910 L 704 911 L 698 917 L 697 917 L 689 925 L 688 925 L 684 929 L 683 929 L 681 931 L 679 931 L 677 929 L 677 928 L 676 927 L 676 926 L 675 925 L 675 924 L 673 922 L 673 921 L 670 918 L 670 917 L 667 914 L 667 912 L 671 908 L 672 908 L 687 893 Z M 340 892 L 342 892 L 345 895 L 345 896 L 355 906 L 356 906 L 362 912 L 362 915 L 356 921 L 356 922 L 355 923 L 355 924 L 354 925 L 354 926 L 353 927 L 353 928 L 352 929 L 352 930 L 351 931 L 348 931 L 347 930 L 346 930 L 342 926 L 341 926 L 332 917 L 331 917 L 325 911 L 325 910 L 324 909 L 324 906 L 325 905 L 326 905 L 328 903 L 329 903 L 331 901 L 332 901 L 337 896 L 337 895 Z M 343 853 L 347 851 L 373 880 L 394 897 L 413 909 L 438 921 L 462 929 L 487 934 L 509 936 L 536 935 L 572 928 L 601 917 L 625 904 L 647 888 L 669 867 L 681 852 L 685 852 L 686 856 L 670 875 L 651 893 L 626 911 L 604 923 L 575 934 L 554 939 L 532 942 L 497 942 L 475 939 L 452 933 L 410 915 L 391 903 L 368 884 L 343 856 Z M 699 852 L 704 847 L 749 847 L 750 848 L 750 849 L 753 852 L 753 853 L 754 854 L 754 855 L 756 858 L 756 861 L 757 862 L 757 876 L 756 877 L 756 880 L 755 881 L 755 882 L 754 883 L 754 884 L 752 886 L 752 887 L 744 895 L 743 895 L 742 896 L 741 896 L 740 897 L 739 897 L 736 899 L 734 899 L 733 900 L 728 900 L 727 901 L 724 901 L 723 900 L 718 900 L 717 899 L 715 899 L 714 898 L 713 898 L 712 897 L 711 897 L 710 896 L 709 896 L 707 894 L 706 894 L 701 889 L 701 888 L 699 886 L 699 885 L 698 884 L 698 883 L 696 880 L 696 878 L 695 877 L 695 874 L 694 873 L 694 865 L 695 864 L 695 861 L 696 860 L 696 858 L 697 857 L 697 856 L 698 855 L 698 854 L 699 853 Z M 277 850 L 280 847 L 325 847 L 328 850 L 328 851 L 330 853 L 330 854 L 332 856 L 332 857 L 333 858 L 333 860 L 334 861 L 334 866 L 335 867 L 335 871 L 334 872 L 334 877 L 333 878 L 333 880 L 332 881 L 332 882 L 331 883 L 331 884 L 330 885 L 330 886 L 326 890 L 326 891 L 325 892 L 324 892 L 320 896 L 319 896 L 318 897 L 317 897 L 314 899 L 311 899 L 310 900 L 297 900 L 296 899 L 294 899 L 293 898 L 291 898 L 290 897 L 289 897 L 287 895 L 286 895 L 283 892 L 282 892 L 279 889 L 279 888 L 277 886 L 277 885 L 275 883 L 275 882 L 274 881 L 274 879 L 273 878 L 273 875 L 272 874 L 272 861 L 273 860 L 273 858 L 274 857 L 274 856 L 275 855 L 275 854 L 276 853 L 276 852 L 277 851 Z M 167 771 L 177 819 L 196 870 L 223 920 L 260 968 L 305 1010 L 357 1044 L 423 1071 L 477 1082 L 531 1084 L 595 1075 L 650 1056 L 697 1031 L 748 992 L 791 945 L 824 895 L 848 839 L 821 839 L 797 890 L 763 938 L 720 981 L 670 1016 L 626 1037 L 574 1052 L 534 1057 L 480 1055 L 427 1044 L 390 1030 L 346 1006 L 302 972 L 262 929 L 232 884 L 210 836 L 193 771 Z M 732 549 L 690 616 L 912 616 L 925 620 L 932 627 L 935 638 L 932 648 L 925 655 L 911 659 L 688 659 L 688 821 L 933 820 L 964 812 L 994 790 L 1008 758 L 1009 729 L 1000 704 L 975 678 L 990 666 L 1000 649 L 1004 611 L 998 590 L 984 571 L 961 557 L 923 549 Z M 763 713 L 764 712 L 916 712 L 917 713 L 921 713 L 927 716 L 931 720 L 934 725 L 934 728 L 935 729 L 935 736 L 932 744 L 926 750 L 917 754 L 764 754 L 763 753 Z M 409 577 L 389 598 L 374 624 L 363 690 L 364 719 L 371 742 L 393 777 L 425 803 L 471 819 L 631 821 L 672 754 L 493 754 L 479 751 L 458 740 L 441 721 L 433 700 L 432 678 L 436 661 L 446 643 L 462 628 L 479 620 L 493 617 L 632 617 L 672 549 L 484 549 L 442 558 Z M 69 551 L 26 616 L 250 617 L 265 623 L 274 632 L 278 658 L 266 676 L 243 684 L 24 684 L 24 821 L 96 821 L 98 751 L 217 751 L 271 821 L 355 821 L 295 738 L 319 724 L 336 707 L 349 682 L 354 661 L 354 633 L 349 612 L 335 586 L 321 572 L 293 557 L 254 549 Z M 235 528 L 235 532 L 361 532 L 394 495 L 422 475 L 444 464 L 491 451 L 533 450 L 580 461 L 610 476 L 637 496 L 668 532 L 794 531 L 776 487 L 754 452 L 730 423 L 697 393 L 655 365 L 626 351 L 579 336 L 540 330 L 493 330 L 441 339 L 398 354 L 357 376 L 319 405 L 285 440 L 256 483 Z M 712 469 L 713 469 L 714 468 L 715 468 L 716 467 L 717 467 L 720 465 L 723 465 L 724 464 L 735 464 L 736 465 L 739 465 L 740 466 L 742 466 L 743 467 L 746 468 L 749 471 L 750 471 L 756 477 L 757 480 L 759 482 L 759 483 L 760 484 L 760 486 L 761 487 L 761 489 L 762 490 L 762 504 L 761 505 L 761 507 L 760 508 L 760 510 L 759 511 L 759 512 L 757 514 L 757 515 L 755 517 L 755 518 L 750 523 L 749 523 L 747 525 L 713 525 L 711 523 L 710 523 L 704 517 L 704 516 L 701 513 L 701 512 L 699 509 L 699 507 L 698 506 L 698 502 L 697 501 L 697 492 L 698 491 L 698 488 L 699 487 L 699 485 L 700 484 L 700 482 L 702 480 L 702 479 L 705 476 L 705 475 L 708 472 L 709 472 Z M 286 466 L 288 466 L 289 465 L 292 465 L 293 464 L 303 464 L 304 465 L 307 465 L 308 466 L 310 466 L 311 467 L 314 468 L 316 470 L 317 470 L 324 477 L 324 478 L 326 480 L 326 481 L 327 482 L 327 483 L 329 486 L 329 488 L 330 489 L 330 504 L 329 505 L 329 507 L 328 508 L 328 509 L 327 510 L 326 513 L 324 515 L 324 516 L 317 523 L 316 523 L 314 525 L 281 525 L 280 524 L 279 524 L 272 517 L 272 516 L 270 514 L 270 513 L 269 512 L 269 511 L 267 508 L 267 506 L 266 505 L 266 500 L 265 499 L 265 497 L 266 496 L 266 490 L 267 489 L 267 486 L 268 485 L 268 484 L 269 483 L 270 480 L 272 478 L 272 477 L 279 470 L 282 469 L 284 467 L 285 467 Z M 349 433 L 350 434 L 350 435 L 351 436 L 351 437 L 352 438 L 352 439 L 354 441 L 354 442 L 357 445 L 357 446 L 359 448 L 359 451 L 356 454 L 355 454 L 338 471 L 336 471 L 333 468 L 333 467 L 331 465 L 330 465 L 326 461 L 325 461 L 324 460 L 323 460 L 322 459 L 321 459 L 320 458 L 320 456 L 330 446 L 331 446 L 338 439 L 339 439 L 345 433 Z M 680 432 L 682 432 L 683 433 L 684 433 L 690 439 L 691 439 L 708 456 L 708 458 L 707 459 L 706 459 L 705 460 L 704 460 L 702 462 L 701 462 L 692 471 L 689 471 L 688 470 L 688 469 L 673 454 L 672 454 L 668 450 L 668 448 L 669 447 L 670 447 L 671 446 L 671 445 L 674 442 L 674 441 L 676 439 L 676 438 L 677 437 L 677 436 L 678 435 L 678 434 Z M 332 521 L 348 498 L 371 474 L 410 446 L 437 433 L 466 424 L 497 419 L 534 419 L 579 428 L 602 437 L 626 450 L 654 471 L 676 493 L 688 508 L 696 523 L 691 524 L 673 500 L 647 474 L 617 453 L 602 445 L 573 434 L 553 429 L 528 426 L 504 426 L 478 429 L 454 435 L 430 444 L 412 453 L 388 469 L 356 499 L 337 524 L 333 524 Z M 633 375 L 644 375 L 645 376 L 648 376 L 649 377 L 651 377 L 652 378 L 655 379 L 657 381 L 658 381 L 667 390 L 667 391 L 668 392 L 668 393 L 669 394 L 669 395 L 671 398 L 671 400 L 672 401 L 672 405 L 673 406 L 673 414 L 672 415 L 672 418 L 671 419 L 671 421 L 670 422 L 670 423 L 669 424 L 668 427 L 666 429 L 666 430 L 658 438 L 657 438 L 655 440 L 654 440 L 653 441 L 652 441 L 649 443 L 646 443 L 645 444 L 631 444 L 630 443 L 628 443 L 627 442 L 625 442 L 624 441 L 621 440 L 619 438 L 618 438 L 610 430 L 610 429 L 608 427 L 608 426 L 606 423 L 606 421 L 605 420 L 605 418 L 604 417 L 604 403 L 605 402 L 605 400 L 606 399 L 606 397 L 607 396 L 607 395 L 608 394 L 609 391 L 612 388 L 612 387 L 616 383 L 617 383 L 620 380 L 621 380 L 622 379 L 623 379 L 626 377 L 628 377 L 629 376 L 632 376 Z M 381 376 L 385 376 L 386 375 L 396 375 L 397 376 L 400 376 L 401 377 L 403 377 L 404 378 L 407 379 L 409 381 L 410 381 L 419 390 L 419 391 L 421 393 L 421 394 L 423 397 L 423 399 L 424 400 L 424 402 L 425 403 L 425 416 L 424 417 L 424 420 L 423 421 L 423 422 L 422 423 L 422 424 L 421 425 L 420 428 L 418 430 L 418 431 L 411 438 L 410 438 L 408 440 L 407 440 L 406 441 L 405 441 L 402 443 L 399 443 L 398 444 L 383 444 L 382 443 L 380 443 L 379 442 L 378 442 L 377 441 L 374 440 L 372 438 L 371 438 L 363 430 L 362 427 L 360 425 L 360 424 L 359 423 L 359 421 L 358 420 L 358 418 L 357 417 L 357 402 L 358 401 L 358 399 L 359 398 L 359 396 L 360 395 L 361 392 L 363 390 L 363 389 L 371 381 L 372 381 L 373 380 L 374 380 L 376 378 L 377 378 L 378 377 L 380 377 Z M 467 368 L 468 369 L 468 372 L 467 373 L 467 384 L 468 385 L 468 390 L 469 391 L 469 394 L 470 395 L 470 398 L 469 399 L 467 399 L 466 400 L 463 400 L 462 401 L 458 401 L 457 402 L 454 402 L 453 403 L 450 403 L 449 404 L 447 404 L 446 405 L 444 405 L 443 406 L 441 406 L 440 407 L 438 407 L 437 406 L 437 402 L 436 401 L 436 398 L 435 397 L 435 395 L 434 394 L 434 392 L 433 391 L 433 390 L 432 389 L 432 388 L 431 387 L 431 386 L 429 384 L 429 383 L 427 381 L 427 379 L 428 378 L 429 378 L 430 377 L 432 377 L 433 376 L 435 376 L 436 375 L 439 375 L 440 374 L 442 374 L 443 373 L 446 373 L 447 372 L 450 372 L 451 371 L 454 371 L 455 370 L 459 370 L 460 369 L 464 369 L 465 368 Z M 561 367 L 563 367 L 564 368 L 569 368 L 570 369 L 573 369 L 574 370 L 578 370 L 579 371 L 582 371 L 583 372 L 586 372 L 587 373 L 589 373 L 590 374 L 593 374 L 594 375 L 596 375 L 597 376 L 599 376 L 600 377 L 602 377 L 603 378 L 603 381 L 600 384 L 600 385 L 598 387 L 598 388 L 597 389 L 597 390 L 596 391 L 596 392 L 595 393 L 595 395 L 594 396 L 594 398 L 593 399 L 593 402 L 592 403 L 592 406 L 591 407 L 589 407 L 588 406 L 585 406 L 584 405 L 582 405 L 581 404 L 578 404 L 577 403 L 575 403 L 574 402 L 571 402 L 570 401 L 567 401 L 566 400 L 562 400 L 561 399 L 559 399 L 558 398 L 558 394 L 559 393 L 559 390 L 560 389 L 560 384 L 561 383 L 561 375 L 560 374 L 560 368 Z M 511 340 L 518 340 L 519 341 L 523 341 L 524 342 L 526 342 L 527 343 L 528 343 L 529 344 L 532 345 L 534 347 L 535 347 L 542 354 L 542 355 L 546 360 L 546 362 L 548 365 L 548 368 L 549 369 L 549 382 L 548 383 L 548 386 L 547 387 L 547 389 L 546 390 L 545 393 L 543 395 L 543 396 L 541 398 L 541 399 L 536 404 L 535 404 L 530 408 L 529 408 L 528 409 L 526 409 L 525 410 L 523 410 L 522 411 L 518 411 L 517 412 L 512 412 L 511 411 L 507 411 L 506 410 L 504 410 L 503 409 L 501 409 L 500 408 L 499 408 L 497 406 L 496 406 L 494 404 L 493 404 L 487 398 L 487 397 L 483 392 L 483 390 L 481 387 L 481 384 L 480 383 L 480 369 L 481 368 L 481 365 L 482 364 L 482 362 L 483 361 L 484 358 L 486 356 L 486 355 L 490 351 L 490 350 L 491 349 L 492 349 L 495 346 L 496 346 L 498 344 L 499 344 L 500 343 L 502 343 L 503 342 L 505 342 L 506 341 L 510 341 Z M 176 529 L 203 531 L 227 474 L 256 429 L 298 383 L 338 352 L 382 328 L 425 312 L 480 301 L 532 299 L 569 303 L 622 317 L 666 337 L 704 361 L 732 384 L 778 435 L 803 475 L 826 531 L 853 531 L 838 488 L 811 438 L 774 389 L 735 352 L 691 321 L 645 298 L 586 280 L 532 273 L 469 276 L 408 290 L 346 317 L 310 340 L 262 382 L 229 422 L 190 491 Z M 179 143 L 179 165 L 202 178 L 221 219 L 258 340 L 201 411 L 166 486 L 230 387 L 316 311 L 404 269 L 519 251 L 614 265 L 716 313 L 801 388 L 865 490 L 831 415 L 770 340 L 783 281 L 825 179 L 851 160 L 843 138 L 820 145 L 817 172 L 784 202 L 749 224 L 728 227 L 708 208 L 691 160 L 690 133 L 702 122 L 705 105 L 696 93 L 683 91 L 669 104 L 672 132 L 651 163 L 621 189 L 592 195 L 563 170 L 538 128 L 522 79 L 532 45 L 513 24 L 496 46 L 506 80 L 491 124 L 461 174 L 438 194 L 413 192 L 378 164 L 356 131 L 358 100 L 346 91 L 334 92 L 324 104 L 324 117 L 338 133 L 337 159 L 320 208 L 300 227 L 265 217 L 211 172 L 210 150 L 201 138 Z" fill="white" fill-rule="evenodd"/>
</svg>
