<svg xmlns="http://www.w3.org/2000/svg" viewBox="0 0 439 100" width="439" height="100" shape-rendering="geometricPrecision">
<path d="M 405 6 L 404 8 L 404 95 L 405 97 L 407 98 L 434 98 L 436 97 L 437 95 L 437 8 L 436 6 Z" fill="#c50119" fill-rule="evenodd" />
<path d="M 298 6 L 297 8 L 297 96 L 299 98 L 326 98 L 327 96 L 327 61 L 329 59 L 351 59 L 353 61 L 353 96 L 355 98 L 382 98 L 383 96 L 383 8 L 381 6 L 355 6 L 353 8 L 353 38 L 351 40 L 329 40 L 327 38 L 327 8 L 325 6 Z" fill="#c50119" fill-rule="evenodd" />
<path d="M 129 6 L 123 9 L 116 16 L 113 21 L 111 28 L 112 40 L 116 49 L 120 54 L 124 57 L 134 62 L 136 62 L 147 68 L 150 72 L 150 75 L 149 77 L 145 80 L 111 80 L 106 84 L 106 94 L 107 96 L 111 98 L 166 98 L 170 97 L 177 93 L 184 85 L 187 76 L 187 67 L 185 60 L 182 55 L 176 49 L 169 44 L 167 44 L 162 40 L 156 38 L 154 36 L 152 36 L 149 34 L 145 29 L 145 25 L 149 21 L 153 20 L 181 20 L 183 19 L 186 15 L 185 9 L 184 7 L 180 4 L 137 4 Z" fill="#c50119" fill-rule="evenodd" />
<path d="M 40 4 L 38 6 L 38 18 L 40 20 L 48 21 L 48 23 L 44 28 L 35 43 L 28 52 L 8 84 L 5 87 L 3 91 L 3 97 L 5 98 L 19 98 L 22 96 L 31 81 L 35 78 L 63 78 L 65 80 L 65 90 L 66 94 L 69 98 L 94 98 L 98 96 L 99 94 L 99 26 L 96 17 L 94 14 L 88 8 L 80 4 Z M 66 32 L 66 59 L 65 61 L 47 62 L 45 59 L 47 57 L 48 54 L 50 51 L 55 45 L 58 39 L 62 33 Z" fill="#c50119" fill-rule="evenodd" />
<path d="M 220 4 L 220 17 L 222 19 L 230 20 L 230 22 L 226 27 L 215 45 L 212 48 L 211 51 L 206 57 L 185 89 L 185 95 L 187 97 L 200 97 L 202 96 L 206 92 L 212 81 L 216 77 L 220 76 L 243 76 L 247 78 L 247 89 L 248 93 L 251 96 L 253 97 L 275 97 L 278 96 L 281 93 L 281 25 L 280 20 L 278 18 L 278 16 L 276 13 L 270 7 L 262 3 Z M 248 30 L 248 58 L 246 60 L 227 58 L 228 56 L 231 53 L 239 39 L 245 31 L 245 30 Z" fill="#c50119" fill-rule="evenodd" />
</svg>