<svg xmlns="http://www.w3.org/2000/svg" viewBox="0 0 387 130" width="387" height="130">
<path d="M 264 0 L 256 10 L 256 123 L 260 129 L 386 128 L 386 52 L 321 52 L 322 79 L 341 80 L 340 105 L 303 104 L 304 29 L 341 30 L 341 38 L 386 38 L 385 4 L 382 3 L 381 0 Z" fill="#e0243b" fill-rule="evenodd"/>
<path d="M 143 0 L 142 9 L 109 129 L 136 129 L 144 100 L 182 100 L 189 129 L 244 129 L 227 64 L 219 38 L 216 23 L 211 8 L 210 0 Z M 164 35 L 165 37 L 174 71 L 173 76 L 151 75 L 151 72 L 152 68 L 157 53 L 160 38 Z" fill="#e0243b" fill-rule="evenodd"/>
<path d="M 0 0 L 0 129 L 56 129 L 57 79 L 110 78 L 110 52 L 56 51 L 57 28 L 110 28 L 110 0 Z" fill="#e0243b" fill-rule="evenodd"/>
</svg>