<svg xmlns="http://www.w3.org/2000/svg" viewBox="0 0 300 167" width="300" height="167" shape-rendering="geometricPrecision">
<path d="M 0 7 L 0 14 L 10 14 L 14 18 L 14 126 L 11 129 L 0 129 L 0 135 L 56 135 L 56 129 L 43 128 L 39 124 L 40 75 L 42 74 L 67 75 L 70 78 L 71 90 L 76 89 L 77 51 L 70 51 L 70 58 L 69 62 L 67 64 L 39 63 L 39 29 L 41 17 L 61 16 L 74 18 L 78 22 L 79 35 L 85 35 L 86 33 L 87 7 Z" fill="#0a51a1" fill-rule="evenodd" />
<path d="M 96 6 L 96 13 L 104 13 L 107 14 L 111 19 L 111 125 L 104 131 L 103 136 L 153 136 L 167 133 L 172 131 L 180 126 L 187 119 L 192 110 L 195 98 L 194 85 L 190 76 L 186 71 L 185 71 L 182 68 L 170 64 L 166 61 L 170 59 L 172 59 L 179 55 L 187 47 L 189 43 L 191 36 L 191 29 L 190 24 L 187 17 L 178 9 L 173 7 L 167 6 L 144 7 Z M 136 69 L 146 69 L 153 70 L 156 71 L 159 73 L 165 79 L 168 85 L 169 88 L 169 94 L 170 95 L 170 100 L 169 101 L 169 107 L 167 113 L 164 118 L 159 123 L 153 126 L 150 127 L 139 127 L 135 125 Z M 150 15 L 154 16 L 159 19 L 161 21 L 163 24 L 165 30 L 165 44 L 164 47 L 162 51 L 157 56 L 153 58 L 150 59 L 143 59 L 142 60 L 135 59 L 136 16 L 141 15 Z" fill="#0a51a1" fill-rule="evenodd" />
<path d="M 274 0 L 274 3 L 278 4 L 278 16 L 281 16 L 282 3 L 287 4 L 287 16 L 289 16 L 292 13 L 293 16 L 295 16 L 297 14 L 299 16 L 299 0 L 297 0 L 297 3 L 295 8 L 292 8 L 292 5 L 290 0 Z" fill="#0a51a1" fill-rule="evenodd" />
<path d="M 263 0 L 207 0 L 206 9 L 218 9 L 223 15 L 224 67 L 223 121 L 224 146 L 222 153 L 218 156 L 212 156 L 208 154 L 201 147 L 198 149 L 203 154 L 203 159 L 201 166 L 219 166 L 227 162 L 237 153 L 241 147 L 244 140 L 247 127 L 248 113 L 248 14 L 249 11 L 251 9 L 263 9 Z" fill="#0a51a1" fill-rule="evenodd" />
</svg>