<svg xmlns="http://www.w3.org/2000/svg" viewBox="0 0 228 72" width="228" height="72" shape-rendering="geometricPrecision">
<path d="M 189 16 L 187 17 L 187 70 L 200 70 L 200 32 L 202 30 L 205 29 L 203 17 L 201 17 L 197 18 Z" fill="#088284" fill-rule="evenodd" />
<path d="M 154 16 L 151 18 L 149 21 L 148 24 L 149 64 L 150 66 L 152 68 L 154 69 L 158 70 L 176 69 L 178 68 L 180 66 L 181 64 L 181 53 L 168 53 L 167 61 L 163 61 L 161 59 L 162 45 L 181 45 L 181 23 L 180 20 L 178 18 L 175 16 Z M 162 25 L 166 25 L 168 27 L 167 36 L 161 35 Z" fill="#088284" fill-rule="evenodd" />
<path d="M 109 16 L 109 69 L 112 70 L 120 70 L 121 26 L 124 23 L 126 23 L 129 26 L 131 70 L 142 69 L 142 23 L 141 21 L 137 17 L 135 16 L 127 16 L 125 18 L 121 18 L 121 16 Z" fill="#088284" fill-rule="evenodd" />
<path d="M 72 16 L 73 70 L 84 69 L 84 26 L 85 24 L 89 23 L 91 25 L 92 70 L 104 69 L 104 24 L 103 21 L 99 17 L 96 16 L 90 16 L 84 18 L 84 16 Z" fill="#088284" fill-rule="evenodd" />
<path d="M 39 16 L 36 18 L 34 21 L 33 24 L 33 42 L 34 64 L 35 66 L 37 68 L 39 69 L 44 70 L 56 70 L 60 69 L 62 68 L 64 66 L 65 64 L 65 53 L 53 53 L 53 59 L 51 61 L 46 60 L 47 45 L 65 45 L 65 22 L 64 20 L 61 17 L 59 16 Z M 47 25 L 52 26 L 51 36 L 45 35 L 45 27 Z" fill="#088284" fill-rule="evenodd" />
<path d="M 216 14 L 214 15 L 211 18 L 210 21 L 210 23 L 211 25 L 215 29 L 221 29 L 223 28 L 225 26 L 226 24 L 226 19 L 224 16 L 221 14 Z" fill="#088284" fill-rule="evenodd" />
<path d="M 3 3 L 3 70 L 16 70 L 17 41 L 28 40 L 27 31 L 16 30 L 17 12 L 27 12 L 27 3 Z" fill="#088284" fill-rule="evenodd" />
</svg>