<svg xmlns="http://www.w3.org/2000/svg" viewBox="0 0 548 154" width="548" height="154" shape-rendering="geometricPrecision">
<path d="M 526 129 L 526 147 L 529 147 L 530 139 L 532 139 L 535 142 L 535 145 L 536 147 L 539 147 L 540 149 L 542 147 L 539 147 L 538 145 L 538 141 L 537 140 L 537 137 L 538 131 L 536 129 L 534 128 Z M 530 130 L 532 130 L 534 131 L 534 136 L 532 137 L 529 136 Z" fill="#c71834" fill-rule="evenodd" />
<path d="M 149 2 L 122 8 L 90 11 L 50 10 L 19 6 L 3 2 L 0 3 L 2 4 L 9 27 L 14 67 L 14 93 L 12 115 L 7 139 L 4 148 L 0 153 L 59 153 L 50 124 L 49 111 L 51 109 L 86 108 L 116 112 L 116 74 L 86 78 L 50 78 L 48 77 L 47 56 L 49 46 L 51 42 L 101 43 L 127 47 L 149 53 Z" fill="#c71834" fill-rule="evenodd" />
<path d="M 364 0 L 374 42 L 377 73 L 375 112 L 370 136 L 364 153 L 422 153 L 413 122 L 410 101 L 411 94 L 429 92 L 455 92 L 465 94 L 462 123 L 453 153 L 511 153 L 503 123 L 499 88 L 501 42 L 506 17 L 512 2 L 511 0 L 453 0 L 465 49 L 464 61 L 450 63 L 428 63 L 410 60 L 413 32 L 423 0 Z" fill="#c71834" fill-rule="evenodd" />
<path d="M 173 0 L 173 2 L 190 14 L 209 32 L 221 48 L 230 66 L 235 85 L 236 111 L 233 130 L 226 153 L 284 153 L 279 139 L 274 113 L 275 87 L 280 68 L 289 49 L 301 32 L 320 13 L 336 2 L 337 0 L 272 0 L 271 13 L 265 35 L 258 49 L 254 50 L 247 37 L 242 23 L 238 0 Z" fill="#c71834" fill-rule="evenodd" />
</svg>