<svg xmlns="http://www.w3.org/2000/svg" viewBox="0 0 960 960" width="960" height="960" shape-rendering="geometricPrecision">
<path d="M 475 629 L 457 685 L 456 687 L 493 687 L 493 684 L 487 665 L 481 649 Z" fill="#07954c" fill-rule="evenodd" /><path d="M 668 411 L 665 417 L 662 428 L 660 431 L 647 469 L 686 469 L 683 459 L 668 414 Z" fill="#07954c" fill-rule="evenodd" /><path d="M 480 0 L 1 480 L 479 959 L 959 479 Z M 409 586 L 541 587 L 540 628 L 524 628 L 559 742 L 579 743 L 578 780 L 493 779 L 494 740 L 511 740 L 505 722 L 444 722 L 438 740 L 455 741 L 454 780 L 368 779 L 369 742 L 388 741 L 423 628 L 408 627 Z M 602 369 L 732 370 L 731 410 L 717 410 L 750 523 L 770 524 L 769 562 L 683 561 L 684 523 L 703 523 L 696 504 L 635 505 L 629 523 L 648 524 L 647 562 L 561 561 L 562 523 L 580 523 L 616 410 L 616 408 L 601 407 Z M 351 369 L 422 370 L 493 482 L 493 410 L 474 409 L 475 369 L 562 370 L 561 410 L 545 410 L 544 562 L 492 562 L 420 450 L 420 523 L 438 524 L 437 562 L 350 561 L 351 523 L 370 523 L 370 410 L 350 409 Z M 196 369 L 331 370 L 330 410 L 286 410 L 286 523 L 328 524 L 327 562 L 196 561 L 197 523 L 239 523 L 239 410 L 195 409 Z M 408 152 L 543 153 L 542 192 L 498 192 L 498 306 L 543 307 L 542 344 L 407 343 L 408 306 L 450 306 L 450 192 L 407 191 Z" fill="#07954c" fill-rule="evenodd" /><path d="M 409 587 L 409 627 L 410 587 L 540 588 L 540 627 L 540 587 Z" fill="#0a964d" fill-rule="evenodd" /><path d="M 197 524 L 197 561 L 327 561 L 197 560 Z" fill="#0a964d" fill-rule="evenodd" /><path d="M 330 409 L 285 409 L 285 523 L 286 409 Z" fill="#0a964d" fill-rule="evenodd" /><path d="M 475 370 L 475 409 L 476 370 L 561 371 L 561 409 L 561 370 Z" fill="#0a964d" fill-rule="evenodd" /><path d="M 330 370 L 196 370 L 196 409 L 240 410 L 240 523 L 239 409 L 196 408 L 197 370 Z" fill="#0a964d" fill-rule="evenodd" /><path d="M 408 191 L 450 191 L 408 190 L 409 153 L 542 153 L 408 153 Z" fill="#0a964d" fill-rule="evenodd" /><path d="M 410 588 L 410 627 L 424 630 L 390 740 L 389 742 L 370 743 L 370 779 L 454 779 L 454 742 L 437 739 L 444 721 L 507 722 L 513 739 L 512 742 L 494 742 L 494 779 L 577 779 L 577 743 L 557 742 L 522 628 L 539 627 L 539 588 Z M 475 626 L 477 628 L 478 634 L 482 647 L 488 663 L 493 679 L 494 685 L 494 688 L 454 687 Z" fill="#ffffff" fill-rule="evenodd" /><path d="M 602 371 L 602 407 L 617 410 L 581 524 L 562 524 L 562 561 L 647 561 L 647 524 L 627 523 L 635 502 L 698 503 L 704 521 L 703 524 L 685 524 L 685 561 L 768 561 L 768 524 L 750 524 L 748 522 L 716 414 L 716 408 L 731 408 L 731 371 Z M 669 409 L 669 412 L 672 419 L 687 467 L 686 471 L 646 470 L 646 467 L 658 432 L 660 429 L 665 412 Z" fill="#ffffff" fill-rule="evenodd" /><path d="M 351 371 L 352 409 L 372 410 L 371 524 L 351 524 L 351 561 L 437 561 L 437 524 L 419 523 L 420 448 L 493 561 L 543 561 L 544 409 L 560 409 L 560 371 L 476 371 L 476 409 L 494 410 L 493 484 L 421 371 Z" fill="#ffffff" fill-rule="evenodd" /><path d="M 197 371 L 197 408 L 239 408 L 241 410 L 240 524 L 198 524 L 198 560 L 327 560 L 327 524 L 284 523 L 285 408 L 330 408 L 330 371 Z" fill="#ffffff" fill-rule="evenodd" /><path d="M 409 154 L 409 190 L 451 191 L 450 307 L 409 307 L 409 343 L 542 342 L 542 307 L 497 306 L 498 190 L 542 190 L 542 154 Z" fill="#ffffff" fill-rule="evenodd" />
</svg>