<svg xmlns="http://www.w3.org/2000/svg" viewBox="0 0 2048 2048" width="2048" height="2048">
<path d="M 1017 1340 L 1014 1346 L 981 1444 L 980 1450 L 977 1459 L 975 1462 L 973 1468 L 973 1470 L 1057 1470 L 1053 1454 L 1047 1436 L 1046 1435 L 1040 1416 L 1036 1400 L 1034 1397 L 1030 1381 L 1017 1343 Z" fill="#08954c" fill-rule="evenodd"/>
<path d="M 1427 875 L 1423 883 L 1381 1005 L 1467 1005 L 1467 1002 L 1457 973 L 1454 960 L 1447 941 L 1444 928 L 1429 883 L 1429 880 Z" fill="#08954c" fill-rule="evenodd"/>
<path d="M 1026 0 L 0 1026 L 1023 2047 L 2047 1028 Z M 876 1254 L 1155 1256 L 1154 1341 L 1119 1344 L 1193 1586 L 1235 1587 L 1234 1666 L 1055 1665 L 1056 1584 L 1096 1584 L 1081 1541 L 949 1541 L 934 1584 L 973 1585 L 972 1666 L 789 1664 L 789 1588 L 831 1586 L 908 1341 L 875 1340 Z M 1287 791 L 1563 792 L 1562 875 L 1530 878 L 1602 1119 L 1644 1120 L 1643 1201 L 1462 1200 L 1463 1119 L 1503 1119 L 1489 1076 L 1357 1076 L 1342 1119 L 1384 1120 L 1383 1201 L 1200 1200 L 1201 1119 L 1242 1118 L 1319 873 L 1286 872 Z M 750 793 L 899 791 L 1055 1033 L 1055 876 L 1016 875 L 1017 791 L 1199 792 L 1198 876 L 1163 876 L 1162 1201 L 1053 1201 L 898 961 L 898 1119 L 937 1120 L 937 1199 L 752 1201 L 751 1119 L 794 1119 L 794 876 L 750 875 Z M 421 791 L 707 792 L 706 875 L 611 875 L 611 1119 L 702 1120 L 701 1200 L 423 1199 L 424 1119 L 514 1119 L 514 875 L 420 874 Z M 874 328 L 1160 329 L 1159 411 L 1064 411 L 1064 656 L 1160 657 L 1159 735 L 873 734 L 874 656 L 964 656 L 964 411 L 875 411 Z" fill="#08954c" fill-rule="evenodd"/>
</svg>