<svg xmlns="http://www.w3.org/2000/svg" viewBox="0 0 865 432" width="865" height="432">
<path d="M 659 134 L 599 119 L 595 120 L 571 205 L 548 126 L 456 126 L 506 308 L 541 309 L 529 350 L 517 368 L 495 386 L 476 394 L 466 395 L 467 397 L 537 431 L 541 431 L 556 419 L 574 399 L 590 371 Z" fill="#0068b6" fill-rule="evenodd"/>
<path d="M 755 116 L 735 120 L 712 130 L 702 137 L 688 150 L 675 169 L 667 189 L 664 203 L 664 228 L 668 247 L 677 267 L 686 280 L 701 295 L 716 305 L 736 313 L 750 316 L 777 316 L 798 311 L 815 303 L 828 294 L 841 281 L 850 268 L 860 245 L 864 222 L 863 203 L 859 185 L 851 167 L 844 156 L 829 140 L 815 130 L 793 120 L 773 116 Z M 762 170 L 767 170 L 772 173 L 774 175 L 774 176 L 777 179 L 782 190 L 784 198 L 785 205 L 785 227 L 783 239 L 781 246 L 776 256 L 769 263 L 767 264 L 762 264 L 758 262 L 753 257 L 751 254 L 748 248 L 746 242 L 744 233 L 743 223 L 743 210 L 744 201 L 747 189 L 749 184 L 753 177 L 758 172 Z" fill="#0068b6" fill-rule="evenodd"/>
<path d="M 343 116 L 322 120 L 303 128 L 287 139 L 274 152 L 262 170 L 254 191 L 251 210 L 252 230 L 256 248 L 264 266 L 277 284 L 290 296 L 304 305 L 323 313 L 338 316 L 365 316 L 380 313 L 401 304 L 419 291 L 431 278 L 443 258 L 449 241 L 452 216 L 451 204 L 448 189 L 440 169 L 431 155 L 418 141 L 403 130 L 384 121 L 360 116 Z M 350 170 L 354 170 L 357 171 L 364 178 L 366 181 L 370 191 L 372 200 L 373 208 L 373 225 L 371 238 L 368 248 L 363 257 L 358 262 L 354 264 L 350 264 L 347 263 L 340 256 L 336 248 L 333 239 L 331 226 L 331 207 L 332 200 L 336 186 L 340 178 L 347 171 Z" fill="#0068b6" fill-rule="evenodd"/>
<path d="M 2 2 L 2 308 L 92 308 L 93 206 L 151 307 L 261 308 L 164 138 L 245 2 L 155 3 L 93 103 L 92 2 Z" fill="#0068b6" fill-rule="evenodd"/>
</svg>