<svg xmlns="http://www.w3.org/2000/svg" viewBox="0 0 176 88" width="176" height="88" shape-rendering="geometricPrecision">
<path d="M 121 22 L 122 25 L 124 25 L 126 27 L 125 47 L 122 47 L 121 49 L 122 52 L 138 51 L 138 49 L 136 47 L 133 46 L 132 43 L 133 32 L 136 37 L 142 52 L 148 52 L 152 41 L 156 33 L 156 47 L 152 48 L 152 52 L 173 51 L 172 47 L 168 46 L 168 27 L 170 25 L 173 24 L 173 21 L 156 20 L 154 21 L 147 38 L 145 36 L 144 32 L 139 21 L 137 20 L 123 20 Z" fill="#006964" fill-rule="evenodd" /><path d="M 87 25 L 86 27 L 86 33 L 88 36 L 95 39 L 107 41 L 111 44 L 108 47 L 99 47 L 95 45 L 89 39 L 87 39 L 85 40 L 85 43 L 89 52 L 91 53 L 94 51 L 96 51 L 100 53 L 108 53 L 115 50 L 119 46 L 120 44 L 120 39 L 119 37 L 116 34 L 110 32 L 101 31 L 96 29 L 96 26 L 98 25 L 105 25 L 109 27 L 113 31 L 117 30 L 117 27 L 114 20 L 111 20 L 109 22 L 105 20 L 95 20 L 92 21 Z" fill="#006964" fill-rule="evenodd" /><path d="M 81 20 L 63 21 L 63 24 L 66 26 L 57 33 L 56 27 L 58 25 L 60 25 L 60 21 L 41 21 L 41 25 L 43 25 L 45 27 L 44 47 L 41 48 L 41 52 L 60 52 L 61 49 L 60 47 L 58 47 L 56 45 L 57 39 L 60 37 L 67 46 L 63 48 L 63 52 L 84 52 L 83 47 L 81 47 L 79 45 L 78 45 L 68 32 L 73 28 L 79 25 L 82 25 Z" fill="#006964" fill-rule="evenodd" /><path d="M 33 71 L 36 71 L 41 73 L 47 73 L 48 72 L 50 72 L 49 69 L 39 68 L 34 68 Z" fill="#f6ed0c" fill-rule="evenodd" /><path d="M 70 57 L 66 56 L 64 60 L 62 61 L 63 63 L 65 64 L 67 62 Z" fill="#f6ed0c" fill-rule="evenodd" /><path d="M 16 47 L 16 52 L 20 60 L 22 60 L 23 57 L 21 55 L 20 52 L 20 49 L 18 47 Z" fill="#f6ed0c" fill-rule="evenodd" /><path d="M 42 15 L 37 15 L 34 16 L 28 19 L 20 27 L 18 31 L 22 32 L 23 29 L 29 23 L 34 20 L 37 19 L 40 19 L 42 18 Z" fill="#f6ed0c" fill-rule="evenodd" /><path d="M 38 2 L 30 4 L 22 8 L 11 18 L 4 31 L 2 44 L 3 52 L 6 61 L 10 68 L 19 77 L 25 81 L 36 85 L 53 85 L 59 83 L 71 76 L 77 70 L 81 64 L 81 62 L 79 61 L 76 62 L 74 66 L 66 74 L 59 78 L 53 80 L 41 81 L 32 79 L 20 72 L 15 67 L 11 61 L 7 48 L 8 35 L 13 23 L 26 11 L 36 7 L 42 6 L 41 2 Z" fill="#f6ed0c" fill-rule="evenodd" /><path d="M 61 61 L 60 63 L 54 63 L 49 66 L 51 70 L 52 70 L 54 75 L 59 75 L 60 73 L 60 70 L 63 68 L 63 64 L 62 63 Z" fill="#095049" fill-rule="evenodd" /><path d="M 34 60 L 32 59 L 30 61 L 26 60 L 24 62 L 21 63 L 21 65 L 22 67 L 24 69 L 24 72 L 30 72 L 31 71 L 32 69 L 31 68 L 35 64 L 35 62 Z" fill="#095049" fill-rule="evenodd" /><path d="M 22 33 L 20 36 L 16 35 L 12 37 L 11 41 L 14 44 L 15 47 L 20 47 L 21 45 L 22 41 L 23 41 L 24 40 L 24 39 L 25 37 L 24 35 Z" fill="#095049" fill-rule="evenodd" /><path d="M 50 70 L 52 74 L 53 70 Z" fill="#0d6f66" fill-rule="evenodd" /><path d="M 64 65 L 63 69 L 62 69 L 60 74 L 62 73 L 64 69 Z" fill="#0d6f66" fill-rule="evenodd" /><path d="M 35 65 L 32 68 L 33 69 L 31 72 L 32 70 L 35 67 Z" fill="#0d6f66" fill-rule="evenodd" /><path d="M 49 65 L 53 63 L 50 63 Z" fill="#0d6f66" fill-rule="evenodd" /><path d="M 20 62 L 20 68 L 23 71 L 25 68 L 23 69 L 21 67 L 20 65 L 20 63 L 22 62 Z" fill="#0d6f66" fill-rule="evenodd" /><path d="M 25 39 L 22 42 L 21 46 L 23 45 L 25 41 Z" fill="#0d6f66" fill-rule="evenodd" /><path d="M 13 46 L 14 43 L 10 41 L 10 38 L 11 36 L 10 43 Z" fill="#0d6f66" fill-rule="evenodd" /><path d="M 59 60 L 57 59 L 55 59 L 53 60 L 51 63 L 55 61 L 59 62 Z" fill="#ffffff" fill-rule="evenodd" /><path d="M 22 61 L 25 59 L 31 59 L 28 56 L 25 57 L 23 59 Z" fill="#ffffff" fill-rule="evenodd" /><path d="M 12 36 L 15 34 L 20 33 L 18 32 L 15 32 Z" fill="#ffffff" fill-rule="evenodd" />
</svg>