<svg xmlns="http://www.w3.org/2000/svg" viewBox="0 0 2000 482" width="2000" height="482" shape-rendering="geometricPrecision">
<path d="M 91 355 L 91 408 L 123 408 L 127 407 L 131 405 L 136 400 L 138 396 L 140 389 L 140 373 L 139 368 L 138 365 L 136 361 L 134 359 L 131 357 L 125 355 Z" fill="#ee312d" fill-rule="evenodd" />
<path d="M 1837 187 L 1802 387 L 1969 387 L 1977 340 L 1877 339 L 1882 309 L 1964 309 L 1972 262 L 1890 261 L 1894 235 L 1896 233 L 1993 232 L 1999 198 L 1999 187 Z" fill="#ee312d" fill-rule="evenodd" />
<path d="M 1618 187 L 1583 387 L 1646 387 L 1657 325 L 1661 285 L 1665 284 L 1714 387 L 1776 387 L 1811 187 L 1748 187 L 1737 249 L 1733 289 L 1729 290 L 1680 187 Z" fill="#ee312d" fill-rule="evenodd" />
<path d="M 1615 187 L 1542 187 L 1506 241 L 1497 252 L 1495 250 L 1474 187 L 1401 187 L 1452 312 L 1452 320 L 1440 387 L 1506 387 L 1518 314 Z" fill="#ee312d" fill-rule="evenodd" />
<path d="M 1232 187 L 1197 387 L 1305 386 L 1333 380 L 1361 366 L 1376 353 L 1390 334 L 1399 315 L 1405 296 L 1409 274 L 1409 245 L 1406 232 L 1397 215 L 1391 208 L 1377 198 L 1359 191 L 1345 188 Z M 1331 239 L 1334 241 L 1339 247 L 1341 251 L 1343 258 L 1343 276 L 1341 289 L 1336 306 L 1331 316 L 1325 324 L 1321 328 L 1314 333 L 1306 337 L 1293 340 L 1271 339 L 1271 336 L 1288 238 L 1290 233 L 1305 233 L 1316 234 L 1325 236 Z" fill="#ee312d" fill-rule="evenodd" />
<path d="M 1152 187 L 1085 187 L 978 387 L 1043 387 L 1052 366 L 1056 360 L 1120 361 L 1123 387 L 1188 387 L 1188 381 Z M 1108 253 L 1109 255 L 1109 263 L 1111 280 L 1114 298 L 1116 316 L 1115 319 L 1076 318 L 1076 316 L 1077 313 L 1081 306 L 1101 263 L 1101 261 L 1105 253 Z" fill="#ee312d" fill-rule="evenodd" />
<path d="M 635 187 L 600 387 L 767 387 L 775 340 L 674 339 L 680 309 L 762 309 L 770 262 L 687 260 L 693 233 L 790 233 L 798 187 Z" fill="#ee312d" fill-rule="evenodd" />
<path d="M 380 188 L 346 387 L 405 386 L 417 318 L 421 276 L 425 271 L 437 387 L 483 387 L 535 273 L 538 275 L 525 330 L 516 387 L 575 386 L 610 187 L 530 187 L 488 280 L 473 306 L 460 187 Z" fill="#ee312d" fill-rule="evenodd" />
<path d="M 969 197 L 955 189 L 940 184 L 914 181 L 896 182 L 862 191 L 839 204 L 824 217 L 813 230 L 801 250 L 792 274 L 787 302 L 787 325 L 790 340 L 797 357 L 810 373 L 829 385 L 857 392 L 880 392 L 896 389 L 910 384 L 932 371 L 932 387 L 974 387 L 993 277 L 903 277 L 896 320 L 924 322 L 912 335 L 897 342 L 880 343 L 868 339 L 859 331 L 853 314 L 854 291 L 861 265 L 871 247 L 880 238 L 891 232 L 905 230 L 921 235 L 929 244 L 932 256 L 994 256 L 994 241 L 990 225 L 984 213 Z" fill="#ee312d" fill-rule="evenodd" />
<path d="M 8 185 L 0 195 L 0 382 L 2 383 L 4 397 L 14 422 L 27 441 L 46 459 L 66 471 L 85 478 L 100 481 L 131 481 L 146 478 L 171 468 L 190 455 L 208 436 L 220 416 L 228 393 L 231 367 L 231 201 L 227 189 L 223 185 L 211 181 L 20 181 Z M 59 331 L 121 331 L 133 332 L 145 335 L 156 341 L 165 350 L 168 355 L 171 363 L 173 374 L 173 385 L 171 398 L 169 404 L 164 413 L 154 423 L 144 428 L 132 431 L 58 430 Z M 59 211 L 98 212 L 116 274 L 134 211 L 173 212 L 172 311 L 143 310 L 143 274 L 145 247 L 127 310 L 104 310 L 86 247 L 88 274 L 87 311 L 58 310 Z" fill="#ee312d" fill-rule="evenodd" />
<path d="M 0 113 L 0 130 L 2 131 L 3 137 L 8 146 L 19 156 L 28 160 L 40 162 L 191 162 L 199 161 L 212 156 L 223 146 L 229 134 L 231 121 L 229 109 L 225 100 L 156 19 L 143 7 L 131 2 L 123 2 L 122 0 L 109 0 L 108 2 L 100 2 L 85 9 L 75 19 L 9 96 L 3 106 L 2 112 Z M 173 89 L 183 89 L 190 91 L 197 95 L 204 102 L 206 105 L 209 111 L 210 114 L 210 129 L 209 132 L 206 138 L 204 141 L 197 148 L 194 150 L 190 152 L 183 154 L 173 154 L 166 152 L 162 150 L 158 147 L 152 141 L 150 138 L 147 132 L 146 129 L 146 114 L 147 111 L 150 105 L 152 102 L 158 96 L 162 93 L 166 91 Z M 36 89 L 45 89 L 52 91 L 58 94 L 68 104 L 71 110 L 73 117 L 73 126 L 71 133 L 68 139 L 58 149 L 52 152 L 45 154 L 36 154 L 29 152 L 23 149 L 13 139 L 10 133 L 8 126 L 8 117 L 10 110 L 13 104 L 23 94 L 29 91 Z M 66 42 L 69 42 L 71 55 L 77 66 L 88 76 L 100 81 L 131 81 L 137 79 L 146 74 L 154 66 L 159 56 L 162 54 L 180 74 L 184 82 L 169 82 L 155 88 L 148 94 L 141 105 L 138 115 L 138 128 L 141 138 L 151 154 L 79 152 L 82 150 L 88 142 L 93 128 L 93 115 L 88 101 L 81 92 L 76 88 L 66 83 L 34 80 Z M 105 9 L 114 9 L 121 11 L 128 15 L 136 23 L 139 28 L 142 38 L 142 45 L 141 49 L 139 55 L 136 60 L 128 68 L 125 70 L 121 72 L 114 74 L 105 74 L 100 73 L 92 69 L 89 67 L 84 62 L 80 56 L 79 54 L 77 47 L 77 36 L 78 32 L 80 27 L 84 21 L 89 16 L 92 14 L 100 10 Z" fill="#ee312d" fill-rule="evenodd" />
</svg>