<svg xmlns="http://www.w3.org/2000/svg" viewBox="0 0 1873 225" width="1873" height="225" shape-rendering="geometricPrecision">
<path d="M 51 157 L 53 160 L 54 160 L 57 163 L 68 170 L 71 173 L 72 173 L 74 175 L 74 178 L 69 192 L 65 200 L 65 203 L 83 191 L 87 187 L 91 187 L 95 191 L 99 193 L 104 198 L 108 200 L 112 203 L 112 201 L 109 194 L 109 191 L 104 178 L 105 174 L 110 170 L 114 168 L 123 160 L 124 160 L 126 157 L 96 156 L 95 153 L 95 150 L 92 143 L 92 138 L 90 134 L 90 131 L 88 133 L 88 136 L 84 145 L 82 154 L 81 156 Z" fill="#000000" fill-rule="evenodd" />
<path d="M 1335 108 L 1331 112 L 1330 115 L 1330 156 L 1331 159 L 1335 163 L 1380 163 L 1382 162 L 1384 160 L 1385 158 L 1385 113 L 1384 111 L 1381 108 Z" fill="#000000" fill-rule="evenodd" />
<path d="M 1822 48 L 1823 223 L 1871 222 L 1870 48 Z" fill="#000000" fill-rule="evenodd" />
<path d="M 1637 48 L 1638 223 L 1685 223 L 1686 154 L 1746 155 L 1747 223 L 1793 222 L 1793 48 L 1746 49 L 1745 113 L 1685 112 L 1685 48 Z" fill="#000000" fill-rule="evenodd" />
<path d="M 1287 55 L 1276 67 L 1272 76 L 1270 85 L 1270 186 L 1272 195 L 1278 207 L 1289 217 L 1300 222 L 1310 223 L 1406 223 L 1416 222 L 1430 215 L 1436 209 L 1442 200 L 1445 191 L 1446 182 L 1446 89 L 1445 80 L 1442 71 L 1437 63 L 1430 56 L 1422 51 L 1409 48 L 1307 48 L 1294 51 Z M 1310 82 L 1316 80 L 1400 80 L 1407 83 L 1410 86 L 1413 91 L 1413 179 L 1412 182 L 1407 188 L 1403 190 L 1398 191 L 1318 191 L 1310 189 L 1306 185 L 1302 177 L 1302 94 L 1304 89 Z" fill="#000000" fill-rule="evenodd" />
<path d="M 1103 48 L 1103 223 L 1202 223 L 1220 222 L 1231 219 L 1243 212 L 1248 206 L 1254 191 L 1255 162 L 1253 154 L 1248 144 L 1242 139 L 1235 136 L 1232 136 L 1228 132 L 1231 132 L 1240 128 L 1246 122 L 1250 113 L 1251 82 L 1249 71 L 1244 62 L 1238 56 L 1230 52 L 1219 49 L 1207 48 Z M 1152 151 L 1196 151 L 1201 152 L 1205 156 L 1206 158 L 1207 162 L 1207 170 L 1206 175 L 1205 177 L 1200 182 L 1198 183 L 1187 184 L 1151 183 Z M 1152 87 L 1192 87 L 1200 88 L 1204 92 L 1205 94 L 1205 109 L 1204 111 L 1199 116 L 1195 118 L 1190 119 L 1151 118 Z" fill="#000000" fill-rule="evenodd" />
<path d="M 921 48 L 921 177 L 926 199 L 932 208 L 944 216 L 957 220 L 994 223 L 1032 221 L 1048 216 L 1058 210 L 1069 195 L 1073 179 L 1073 48 L 1027 48 L 1027 168 L 1025 176 L 1020 181 L 1016 183 L 1002 184 L 982 183 L 976 180 L 970 172 L 969 48 Z" fill="#000000" fill-rule="evenodd" />
<path d="M 597 48 L 597 89 L 641 90 L 642 223 L 689 223 L 690 89 L 737 88 L 737 48 Z" fill="#000000" fill-rule="evenodd" />
<path d="M 533 49 L 534 223 L 581 223 L 581 48 Z" fill="#000000" fill-rule="evenodd" />
<path d="M 286 49 L 287 223 L 333 222 L 330 135 L 333 95 L 375 223 L 418 222 L 459 95 L 463 92 L 458 223 L 505 223 L 505 48 L 427 49 L 395 155 L 361 48 Z" fill="#000000" fill-rule="evenodd" />
<path d="M 1477 56 L 1467 67 L 1461 86 L 1461 113 L 1468 134 L 1480 145 L 1495 150 L 1560 155 L 1566 160 L 1566 177 L 1560 183 L 1552 185 L 1522 185 L 1514 183 L 1509 178 L 1507 166 L 1461 166 L 1463 191 L 1473 210 L 1481 216 L 1500 222 L 1544 223 L 1565 222 L 1589 216 L 1602 208 L 1610 196 L 1613 181 L 1611 144 L 1604 131 L 1596 125 L 1581 120 L 1516 113 L 1511 109 L 1509 104 L 1509 95 L 1514 88 L 1532 85 L 1553 86 L 1558 88 L 1562 94 L 1563 103 L 1610 102 L 1609 83 L 1605 70 L 1600 62 L 1584 51 L 1555 46 L 1506 47 L 1490 50 Z" fill="#000000" fill-rule="evenodd" />
<path d="M 759 58 L 751 68 L 745 89 L 746 118 L 749 128 L 755 138 L 766 146 L 785 151 L 844 155 L 850 160 L 851 171 L 849 179 L 842 184 L 806 185 L 798 183 L 794 179 L 791 172 L 791 166 L 745 166 L 746 186 L 754 206 L 762 214 L 775 220 L 808 223 L 855 221 L 876 215 L 887 208 L 895 197 L 899 180 L 898 150 L 891 133 L 884 127 L 865 120 L 800 113 L 795 109 L 793 104 L 793 95 L 798 88 L 816 85 L 838 86 L 842 88 L 846 93 L 847 103 L 894 103 L 893 83 L 885 63 L 879 57 L 866 50 L 839 46 L 791 47 L 772 51 Z" fill="#000000" fill-rule="evenodd" />
<path d="M 3 221 L 3 223 L 259 222 L 238 188 L 224 162 L 221 159 L 200 121 L 197 118 L 196 114 L 179 87 L 131 3 L 129 3 Z M 15 213 L 130 17 L 158 62 L 168 83 L 138 82 L 130 57 L 122 83 L 93 84 L 115 101 L 107 129 L 130 112 L 155 129 L 147 100 L 168 84 L 171 85 L 209 149 L 211 157 L 182 157 L 172 131 L 163 157 L 135 158 L 157 175 L 149 203 L 171 187 L 197 203 L 187 177 L 188 174 L 213 157 L 243 207 L 245 215 Z" fill="#000000" fill-rule="evenodd" />
</svg>