<svg xmlns="http://www.w3.org/2000/svg" viewBox="0 0 1991 602" width="1991" height="602">
<path d="M 1326 5 L 1335 379 L 1326 599 L 1530 599 L 1527 484 L 1603 391 L 1658 470 L 1721 599 L 1989 600 L 1840 396 L 1733 234 L 1784 166 L 1927 4 L 1668 5 L 1609 103 L 1520 219 L 1522 4 Z" fill="#c11855" fill-rule="evenodd"/>
<path d="M 1231 2 L 842 4 L 767 22 L 708 64 L 680 118 L 673 198 L 687 245 L 724 296 L 768 327 L 852 359 L 1126 425 L 904 425 L 687 400 L 688 601 L 1125 595 L 1200 576 L 1253 539 L 1290 470 L 1298 402 L 1282 338 L 1252 298 L 1208 267 L 1132 235 L 857 174 L 1072 173 L 1232 190 Z" fill="#c11855" fill-rule="evenodd"/>
<path d="M 16 2 L 28 266 L 3 601 L 213 601 L 204 417 L 211 284 L 406 595 L 640 596 L 623 307 L 624 134 L 635 2 L 427 4 L 436 271 L 352 152 L 271 3 Z" fill="#c11855" fill-rule="evenodd"/>
</svg>