<svg xmlns="http://www.w3.org/2000/svg" viewBox="0 0 865 292" width="865" height="292">
<path d="M 828 219 L 828 247 L 834 247 L 835 236 L 842 236 L 845 239 L 845 247 L 851 247 L 850 236 L 847 234 L 850 231 L 851 229 L 851 225 L 849 221 L 848 220 L 846 219 Z M 834 224 L 845 225 L 844 231 L 833 230 Z" fill="#1681c4" fill-rule="evenodd"/>
<path d="M 838 207 L 832 208 L 829 209 L 825 211 L 818 218 L 815 224 L 814 227 L 814 238 L 815 242 L 818 247 L 826 255 L 828 256 L 835 258 L 843 258 L 850 256 L 856 252 L 858 250 L 858 249 L 861 246 L 863 242 L 864 239 L 864 227 L 863 223 L 861 219 L 853 211 L 849 209 L 846 208 Z M 835 211 L 843 211 L 846 212 L 850 214 L 853 216 L 855 218 L 859 224 L 860 227 L 861 233 L 860 238 L 858 243 L 856 246 L 851 251 L 847 253 L 844 254 L 833 254 L 827 251 L 825 249 L 824 249 L 820 244 L 818 240 L 817 237 L 817 229 L 819 223 L 821 220 L 826 215 L 829 213 Z" fill="#1681c4" fill-rule="evenodd"/>
<path d="M 282 7 L 282 68 L 368 69 L 368 236 L 436 290 L 436 94 L 405 69 L 521 68 L 521 7 Z" fill="#1681c4" fill-rule="evenodd"/>
<path d="M 547 2 L 547 238 L 610 288 L 612 137 L 800 288 L 800 7 L 737 7 L 735 153 Z" fill="#1681c4" fill-rule="evenodd"/>
<path d="M 2 2 L 2 238 L 65 288 L 67 137 L 256 289 L 256 7 L 192 7 L 191 154 Z" fill="#1681c4" fill-rule="evenodd"/>
</svg>