<?xml version="1.0" encoding="UTF-8"?>
<svg xmlns="http://www.w3.org/2000/svg" xmlns:xlink="http://www.w3.org/1999/xlink" width="586.33pt" height="332.61pt" viewBox="0 0 586.33 332.61" version="1.1">
<defs>
<clipPath id="clip1">
  <path d="M 0 294 L 586.328125 294 L 586.328125 332.609375 L 0 332.609375 Z M 0 294 "/>
</clipPath>
<clipPath id="clip2">
  <path d="M 0 287 L 586.328125 287 L 586.328125 332.609375 L 0 332.609375 Z M 0 287 "/>
</clipPath>
</defs>
<g id="surface1">
<path style=" stroke:none;fill-rule:evenodd;fill:rgb(92.89856%,10.998535%,14.099121%);fill-opacity:1;" d="M 249.007813 36.757813 C 257.863281 36.757813 265.046875 43.9375 265.046875 52.792969 C 265.046875 61.652344 257.863281 68.835938 249.007813 68.835938 C 240.152344 68.835938 232.972656 61.652344 232.972656 52.792969 C 232.972656 43.9375 240.152344 36.757813 249.007813 36.757813 Z M 204.597656 36.757813 C 213.449219 36.757813 220.632813 43.9375 220.632813 52.792969 C 220.632813 61.652344 213.449219 68.835938 204.597656 68.835938 C 195.742188 68.835938 188.558594 61.652344 188.558594 52.792969 C 188.558594 43.9375 195.742188 36.757813 204.597656 36.757813 Z M 337.855469 36.757813 C 346.71875 36.757813 353.898438 43.9375 353.898438 52.792969 C 353.898438 61.652344 346.71875 68.835938 337.855469 68.835938 C 329.003906 68.835938 321.820313 61.652344 321.820313 52.792969 C 321.820313 43.9375 329.003906 36.757813 337.855469 36.757813 Z M 382.269531 36.757813 C 391.128906 36.757813 398.3125 43.9375 398.3125 52.792969 C 398.3125 61.652344 391.128906 68.835938 382.269531 68.835938 C 373.414063 68.835938 366.230469 61.652344 366.230469 52.792969 C 366.230469 43.9375 373.414063 36.757813 382.269531 36.757813 Z M 293.433594 36.757813 C 302.289063 36.757813 309.472656 43.9375 309.472656 52.792969 C 309.472656 61.652344 302.289063 68.835938 293.433594 68.835938 C 284.574219 68.835938 277.394531 61.652344 277.394531 52.792969 C 277.394531 43.9375 284.574219 36.757813 293.433594 36.757813 Z M 398.4375 97.933594 L 426.175781 11.449219 L 160.777344 11.449219 L 188.519531 97.933594 Z M 236.082031 246.269531 L 350.875 246.269531 L 371.726563 181.226563 L 215.226563 181.226563 Z M 176.609375 97.933594 L 145.230469 0.109375 L 441.726563 0.109375 L 410.347656 97.933594 L 407.371094 97.933594 L 437.835938 2.945313 L 149.121094 2.945313 L 179.585938 97.933594 Z M 227.8125 257.601563 L 203.324219 181.226563 L 206.296875 181.226563 L 229.878906 254.769531 L 357.074219 254.769531 L 380.65625 181.226563 L 383.632813 181.226563 L 359.144531 257.601563 L 227.8125 257.601563 "/>
<path style="fill:none;stroke-width:2.16;stroke-linecap:butt;stroke-linejoin:miter;stroke:rgb(92.89856%,10.998535%,14.099121%);stroke-opacity:1;stroke-miterlimit:22.9256;" d="M 2490.078125 2958.521875 C 2578.632813 2958.521875 2650.46875 2886.725 2650.46875 2798.170313 C 2650.46875 2709.576563 2578.632813 2637.740625 2490.078125 2637.740625 C 2401.523438 2637.740625 2329.726563 2709.576563 2329.726563 2798.170313 C 2329.726563 2886.725 2401.523438 2958.521875 2490.078125 2958.521875 Z M 2045.976563 2958.521875 C 2134.492188 2958.521875 2206.328125 2886.725 2206.328125 2798.170313 C 2206.328125 2709.576563 2134.492188 2637.740625 2045.976563 2637.740625 C 1957.421875 2637.740625 1885.585938 2709.576563 1885.585938 2798.170313 C 1885.585938 2886.725 1957.421875 2958.521875 2045.976563 2958.521875 Z M 3378.554688 2958.521875 C 3467.1875 2958.521875 3538.984375 2886.725 3538.984375 2798.170313 C 3538.984375 2709.576563 3467.1875 2637.740625 3378.554688 2637.740625 C 3290.039063 2637.740625 3218.203125 2709.576563 3218.203125 2798.170313 C 3218.203125 2886.725 3290.039063 2958.521875 3378.554688 2958.521875 Z M 3822.695313 2958.521875 C 3911.289063 2958.521875 3983.125 2886.725 3983.125 2798.170313 C 3983.125 2709.576563 3911.289063 2637.740625 3822.695313 2637.740625 C 3734.140625 2637.740625 3662.304688 2709.576563 3662.304688 2798.170313 C 3662.304688 2886.725 3734.140625 2958.521875 3822.695313 2958.521875 Z M 2934.335938 2958.521875 C 3022.890625 2958.521875 3094.726563 2886.725 3094.726563 2798.170313 C 3094.726563 2709.576563 3022.890625 2637.740625 2934.335938 2637.740625 C 2845.742188 2637.740625 2773.945313 2709.576563 2773.945313 2798.170313 C 2773.945313 2886.725 2845.742188 2958.521875 2934.335938 2958.521875 Z M 3984.375 2346.764063 L 4261.757813 3211.607813 L 1607.773438 3211.607813 L 1885.195313 2346.764063 Z M 2360.820313 863.404688 L 3508.75 863.404688 L 3717.265625 1513.834375 L 2152.265625 1513.834375 Z M 1766.09375 2346.764063 L 1452.304688 3325.00625 L 4417.265625 3325.00625 L 4103.476563 2346.764063 L 4073.710938 2346.764063 L 4378.359375 3296.646875 L 1491.210938 3296.646875 L 1795.859375 2346.764063 Z M 2278.125 750.084375 L 2033.242188 1513.834375 L 2062.96875 1513.834375 L 2298.789063 778.404688 L 3570.742188 778.404688 L 3806.5625 1513.834375 L 3836.328125 1513.834375 L 3591.445313 750.084375 Z M 2278.125 750.084375 " transform="matrix(0.1,0,0,-0.1,0,332.61)"/>
<path style=" stroke:none;fill-rule:nonzero;fill:rgb(2.69928%,0.799561%,0.799561%);fill-opacity:1;" d="M 248.523438 103.65625 L 226.320313 103.65625 L 226.320313 122.109375 L 216.375 122.109375 L 216.375 136.75 L 226.320313 136.75 L 226.320313 159.746094 C 226.320313 163.414063 226.992188 166.308594 228.230469 168.546875 C 229.414063 170.679688 230.898438 172.367188 232.835938 173.503906 C 234.804688 174.511719 236.953125 175.199219 239.253906 175.625 C 241.480469 175.960938 243.804688 176.140625 246.21875 176.140625 C 250.542969 175.886719 254.769531 175.707031 258.925781 175.566406 L 258.925781 159.808594 C 257.773438 159.910156 256.601563 159.960938 255.410156 159.960938 C 252.683594 159.960938 250.875 159.328125 249.898438 158.136719 C 248.941406 156.972656 248.523438 155.164063 248.523438 152.632813 L 248.523438 136.75 L 258.128906 136.75 L 258.128906 122.109375 L 248.523438 122.109375 Z M 516.449219 103.65625 L 494.242188 103.65625 L 494.242188 122.109375 L 484.300781 122.109375 L 484.300781 136.75 L 494.242188 136.75 L 494.242188 159.746094 C 494.242188 163.414063 494.925781 166.308594 496.160156 168.546875 C 497.34375 170.679688 498.828125 172.367188 500.761719 173.503906 C 502.730469 174.511719 504.882813 175.199219 507.183594 175.625 C 509.410156 175.960938 511.722656 176.140625 514.136719 176.140625 C 518.464844 175.886719 522.695313 175.707031 526.84375 175.566406 L 526.84375 159.808594 C 525.691406 159.910156 524.523438 159.960938 523.332031 159.960938 C 520.605469 159.960938 518.796875 159.328125 517.820313 158.136719 C 516.863281 156.972656 516.449219 155.164063 516.449219 152.632813 L 516.449219 136.75 L 526.050781 136.75 L 526.050781 122.109375 L 516.449219 122.109375 Z M 456.679688 174.246094 L 481.226563 174.246094 L 481.226563 103.65625 L 456.679688 103.65625 Z M 451.792969 152.566406 C 452.070313 130.195313 438.621094 118.882813 411.496094 118.597656 C 400.21875 118.738281 391.1875 121.546875 384.421875 127.027344 C 377.609375 132.605469 374.179688 139.59375 374.089844 147.957031 C 374.179688 157.246094 378 164.378906 385.550781 169.363281 C 392.804688 174.402344 402.222656 176.9375 413.777344 177.011719 C 422.113281 177.011719 429.527344 175.585938 436.066406 172.722656 C 442.65625 169.863281 447.394531 165.433594 450.296875 159.429688 L 424.71875 159.429688 C 423.636719 160.714844 422.023438 161.664063 419.90625 162.304688 C 417.808594 163.039063 415.574219 163.394531 413.226563 163.394531 C 408.921875 163.394531 405.648438 162.359375 403.441406 160.246094 C 401.136719 158.265625 399.78125 155.710938 399.316406 152.566406 Z M 399.457031 141.578125 C 400.746094 135.410156 405.609375 132.28125 414.011719 132.214844 C 417.785156 132.214844 420.777344 133.105469 423.011719 134.894531 C 425.195313 136.683594 426.328125 138.914063 426.425781 141.578125 Z M 264.625 174.246094 L 288.832031 174.246094 L 288.832031 121.308594 L 264.625 121.308594 Z M 288.832031 101.445313 L 264.625 101.445313 L 264.625 115.585938 L 288.832031 115.585938 Z M 165.175781 147.875 C 165.175781 146.347656 165.367188 144.828125 165.765625 143.335938 C 166.140625 141.898438 166.777344 140.617188 167.695313 139.492188 C 169.507813 137.039063 172.914063 135.792969 177.921875 135.734375 C 180.53125 135.734375 182.71875 136.078125 184.503906 136.777344 C 186.148438 137.449219 187.421875 138.355469 188.285156 139.492188 C 189.863281 141.992188 190.640625 144.78125 190.640625 147.875 C 190.640625 150.8125 189.863281 153.492188 188.285156 155.941406 C 187.421875 157.066406 186.148438 157.972656 184.503906 158.644531 C 182.71875 159.472656 180.53125 159.875 177.921875 159.875 C 172.914063 159.8125 169.507813 158.503906 167.695313 155.941406 C 166.777344 154.804688 166.140625 153.523438 165.765625 152.089844 C 165.367188 150.652344 165.175781 149.25 165.175781 147.875 Z M 141.226563 192.277344 L 164.15625 192.277344 L 164.15625 168.769531 L 164.378906 168.769531 C 172.175781 173.578125 178.484375 176.015625 186.765625 176.089844 C 198.144531 175.84375 206.011719 172.710938 210.347656 166.644531 C 212.597656 163.851563 214.175781 160.824219 215.023438 157.5625 C 215.847656 154.289063 216.261719 151.066406 216.261719 147.855469 C 216.261719 140.679688 213.902344 134.160156 209.179688 128.304688 C 206.792969 125.515625 203.835938 123.285156 200.257813 121.632813 C 196.539063 120.027344 192.179688 119.191406 187.179688 119.121094 C 180.984375 119.191406 176.441406 119.960938 173.574219 121.417969 C 170.648438 122.675781 166.625 124.488281 163.375 126.425781 L 163.375 120.445313 L 141.226563 120.445313 Z M 110.300781 147.777344 C 110.394531 150.871094 109.734375 153.910156 108.308594 156.859375 C 107.464844 158.300781 106.28125 159.449219 104.757813 160.296875 C 103.054688 161.253906 100.871094 161.71875 98.253906 161.71875 C 95.710938 161.71875 93.664063 161.253906 92.140625 160.296875 C 90.433594 159.449219 89.164063 158.300781 88.324219 156.859375 C 87.550781 155.421875 87.007813 153.910156 86.730469 152.328125 C 86.363281 150.726563 86.183594 149.21875 86.183594 147.777344 C 86.097656 144.503906 86.824219 141.429688 88.324219 138.53125 C 89.164063 137.128906 90.433594 135.976563 92.140625 135.09375 C 93.664063 134.285156 95.710938 133.890625 98.253906 133.890625 C 100.871094 133.890625 103.054688 134.285156 104.757813 135.09375 C 106.28125 135.976563 107.464844 137.128906 108.308594 138.53125 C 109.171875 139.84375 109.761719 141.320313 110.035156 142.972656 C 110.21875 144.664063 110.300781 146.265625 110.300781 147.777344 Z M 136.40625 147.777344 C 136.40625 139.679688 133.335938 132.828125 127.175781 127.21875 C 121.082031 121.476563 111.421875 118.546875 98.214844 118.398438 C 85.164063 118.546875 75.574219 121.476563 69.371094 127.195313 C 63.050781 132.828125 59.960938 139.664063 60.097656 147.757813 C 59.960938 155.730469 63.050781 162.5625 69.371094 168.25 C 75.574219 174.078125 85.164063 177.066406 98.214844 177.207031 C 111.421875 177.066406 121.082031 174.078125 127.175781 168.25 C 133.335938 162.5625 136.40625 155.746094 136.40625 147.777344 Z M 318.675781 147.96875 C 318.675781 149.496094 318.863281 151.011719 319.261719 152.511719 C 319.640625 153.945313 320.273438 155.222656 321.191406 156.347656 C 323.003906 158.800781 326.40625 160.046875 331.417969 160.113281 C 334.027344 160.113281 336.214844 159.765625 338 159.066406 C 339.648438 158.394531 340.914063 157.484375 341.785156 156.347656 C 343.363281 153.855469 344.140625 151.058594 344.140625 147.96875 C 344.140625 145.03125 343.363281 142.347656 341.785156 139.898438 C 340.914063 138.773438 339.648438 137.871094 338 137.199219 C 336.214844 136.371094 334.027344 135.96875 331.417969 135.96875 C 326.40625 136.027344 323.003906 137.339844 321.191406 139.898438 C 320.273438 141.039063 319.640625 142.320313 319.261719 143.753906 C 318.863281 145.1875 318.675781 146.59375 318.675781 147.96875 Z M 294.722656 103.566406 L 317.652344 103.566406 L 317.652344 127.070313 L 317.875 127.070313 C 325.671875 122.261719 331.980469 119.824219 340.261719 119.753906 C 351.636719 119.996094 359.503906 123.132813 363.839844 129.199219 C 366.097656 131.984375 367.675781 135.015625 368.519531 138.277344 C 369.34375 141.554688 369.753906 144.777344 369.753906 147.980469 C 369.753906 155.164063 367.390625 161.679688 362.675781 167.535156 C 360.285156 170.324219 357.324219 172.554688 353.753906 174.210938 C 350.035156 175.816406 345.675781 176.648438 340.675781 176.722656 C 334.480469 176.648438 329.9375 175.882813 327.070313 174.417969 C 324.144531 173.167969 320.121094 171.351563 316.875 169.417969 L 316.875 175.398438 L 294.722656 175.398438 L 294.722656 103.566406 "/>
<g clip-path="url(#clip1)" clip-rule="nonzero">
<path style=" stroke:none;fill-rule:evenodd;fill:rgb(2.69928%,0.799561%,0.799561%);fill-opacity:1;" d="M 468.285156 329.566406 C 469.5625 327.628906 470.839844 325.695313 472.117188 323.761719 C 474.082031 325.324219 476.398438 326.203125 479.515625 326.191406 C 481.914063 326.183594 483.78125 325.773438 483.753906 324.03125 C 483.726563 322.554688 481.484375 321.515625 479.179688 321.402344 C 474.132813 321.164063 470.480469 319.261719 470.363281 314.523438 C 470.253906 309.800781 474.207031 306.816406 480.253906 306.09375 C 485.179688 305.503906 489.226563 306.589844 492.761719 307.710938 C 491.574219 309.421875 490.386719 311.128906 489.199219 312.839844 C 487.433594 312.03125 485.628906 311.457031 483.753906 311.621094 C 482.25 311.757813 481.109375 312.105469 480.457031 313.039063 C 479.753906 314.035156 480.625 315.269531 482.441406 315.652344 C 485.730469 316.355469 488.621094 316.515625 490.878906 318.101563 C 493.214844 319.734375 494.253906 322.847656 493.164063 326.125 C 491.660156 330.671875 485.996094 332.34375 479.648438 332.398438 C 475.355469 332.433594 471.59375 331.105469 468.285156 329.566406 Z M 333.496094 329.566406 C 334.769531 327.628906 336.046875 325.695313 337.324219 323.761719 C 339.296875 325.324219 341.609375 326.203125 344.726563 326.191406 C 347.121094 326.183594 348.992188 325.773438 348.960938 324.03125 C 348.9375 322.554688 346.695313 321.515625 344.386719 321.402344 C 339.339844 321.164063 335.6875 319.261719 335.578125 314.523438 C 335.46875 309.800781 339.417969 306.816406 345.464844 306.09375 C 350.390625 305.503906 354.433594 306.589844 357.96875 307.710938 C 356.78125 309.421875 355.59375 311.128906 354.402344 312.839844 C 352.640625 312.03125 350.835938 311.457031 348.960938 311.621094 C 347.460938 311.757813 346.324219 312.105469 345.664063 313.039063 C 344.964844 314.035156 345.832031 315.269531 347.648438 315.652344 C 350.941406 316.355469 353.828125 316.515625 356.085938 318.101563 C 358.421875 319.734375 359.460938 322.847656 358.371094 326.125 C 356.863281 330.671875 351.210938 332.34375 344.859375 332.398438 C 340.5625 332.433594 336.804688 331.105469 333.496094 329.566406 Z M 11.34375 311.824219 L 17.261719 311.824219 C 19.890625 311.824219 22.042969 309.671875 22.042969 307.039063 C 22.042969 304.414063 19.890625 302.261719 17.261719 302.261719 L 11.34375 302.261719 Z M 21.292969 294.914063 C 27.96875 294.914063 33.425781 300.371094 33.425781 307.039063 C 33.425781 313.710938 27.96875 319.171875 21.292969 319.171875 L 11.34375 319.171875 L 11.34375 331.636719 L 0.109375 331.636719 L 0.109375 294.910156 C 7.175781 294.910156 14.230469 294.914063 21.292969 294.914063 Z M 102.222656 317.648438 L 94.636719 331.636719 L 88.324219 331.636719 L 72.773438 306.765625 L 84.195313 306.765625 L 91.402344 320.5 L 99.292969 306.765625 L 105.152344 306.765625 L 113.039063 320.5 L 120.253906 306.765625 L 131.671875 306.765625 L 116.117188 331.636719 L 109.8125 331.636719 Z M 433.105469 306.765625 L 433.105469 331.636719 L 422.628906 331.636719 L 422.628906 306.765625 Z M 422.628906 294.910156 L 433.105469 294.910156 L 433.105469 302.410156 L 422.628906 302.410156 Z M 510.144531 306.765625 L 510.144531 331.636719 L 499.671875 331.636719 L 499.671875 306.765625 Z M 499.671875 294.910156 L 510.144531 294.910156 L 510.144531 302.410156 L 499.671875 302.410156 Z M 297.769531 331.636719 L 297.769531 306.765625 L 307.746094 306.765625 L 307.746094 310.421875 C 310.613281 307.441406 314.144531 305.621094 318.8125 306.207031 C 323.726563 306.824219 328.246094 309.371094 328.246094 314.78125 L 328.246094 331.636719 L 318.429688 331.636719 L 318.429688 317.289063 C 318.429688 314.308594 315.988281 312.089844 313.007813 312.355469 C 310.027344 312.628906 307.589844 315.289063 307.589844 318.273438 L 307.589844 331.636719 Z M 365.550781 331.636719 L 365.550781 306.765625 L 375.519531 306.765625 L 375.519531 310.421875 C 378.390625 307.441406 381.914063 305.621094 386.585938 306.207031 C 390.289063 306.675781 393.777344 308.238281 395.265625 311.304688 L 396.167969 310.421875 C 398.878906 307.441406 402.21875 305.621094 406.640625 306.207031 C 411.285156 306.824219 415.566406 309.371094 415.566406 314.78125 L 415.566406 331.636719 L 405.800781 331.636719 L 405.800781 317.289063 C 405.800781 314.308594 403.492188 312.089844 400.671875 312.355469 C 397.851563 312.628906 395.546875 315.289063 395.546875 318.273438 L 395.546875 331.636719 L 385.902344 331.636719 L 385.902344 317.289063 C 385.902344 314.308594 383.503906 312.089844 380.5625 312.355469 C 377.628906 312.628906 375.222656 315.289063 375.222656 318.273438 L 375.222656 331.636719 Z M 555.742188 331.636719 L 555.742188 306.765625 L 565.722656 306.765625 L 565.722656 310.421875 C 568.585938 307.441406 572.117188 305.621094 576.789063 306.207031 C 581.699219 306.824219 586.222656 309.371094 586.222656 314.78125 L 586.222656 331.636719 L 576.398438 331.636719 L 576.398438 317.289063 C 576.398438 314.308594 573.96875 312.089844 570.984375 312.355469 C 568 312.628906 565.566406 315.289063 565.566406 318.273438 L 565.566406 331.636719 Z M 232.296875 331.636719 L 232.296875 306.765625 L 242.277344 306.765625 L 242.277344 310.421875 C 244.910156 307.679688 249.488281 305.921875 253.613281 306.113281 L 253.613281 314.65625 C 251.023438 313.683594 249.539063 313.4375 247.539063 313.621094 C 244.558594 313.890625 242.121094 316.546875 242.121094 319.527344 L 242.121094 331.636719 Z M 170.292969 331.636719 L 170.292969 306.765625 L 180.269531 306.765625 L 180.269531 310.421875 C 182.90625 307.679688 187.480469 305.921875 191.609375 306.113281 L 191.609375 314.65625 C 189.019531 313.683594 187.539063 313.4375 185.535156 313.621094 C 182.554688 313.890625 180.117188 316.546875 180.117188 319.527344 L 180.117188 331.636719 Z M 200.765625 302.828125 L 210.351563 302.828125 L 210.351563 331.636719 L 221.347656 331.636719 L 221.347656 302.828125 L 230.929688 302.828125 L 230.929688 294.910156 L 200.765625 294.910156 Z M 54.097656 313.472656 C 57.804688 313.472656 60.8125 316.078125 60.8125 319.289063 C 60.8125 322.5 57.804688 325.109375 54.097656 325.109375 C 50.386719 325.109375 47.378906 322.5 47.378906 319.289063 C 47.378906 316.078125 50.386719 313.472656 54.097656 313.472656 Z M 54.097656 306.074219 C 64.039063 306.074219 72.105469 311.988281 72.105469 319.289063 C 72.105469 326.589844 64.039063 332.5 54.097656 332.5 C 44.152344 332.5 36.082031 326.589844 36.082031 319.289063 C 36.082031 311.988281 44.152344 306.074219 54.097656 306.074219 Z M 532.4375 313.472656 C 536.144531 313.472656 539.152344 316.078125 539.152344 319.289063 C 539.152344 322.5 536.144531 325.109375 532.4375 325.109375 C 528.730469 325.109375 525.722656 322.5 525.722656 319.289063 C 525.722656 316.078125 528.730469 313.472656 532.4375 313.472656 Z M 532.4375 306.074219 C 542.382813 306.074219 550.449219 311.988281 550.449219 319.289063 C 550.449219 326.589844 542.382813 332.5 532.4375 332.5 C 522.492188 332.5 514.429688 326.589844 514.429688 319.289063 C 514.429688 311.988281 522.492188 306.074219 532.4375 306.074219 Z M 270.410156 306.074219 C 274.0625 306.074219 277.398438 307.316406 279.945313 309.355469 L 279.945313 306.765625 L 290.277344 306.765625 L 290.277344 331.636719 L 279.945313 331.636719 L 279.945313 329.222656 C 277.398438 331.265625 274.0625 332.5 270.410156 332.5 C 262.421875 332.5 255.945313 326.589844 255.945313 319.289063 C 255.945313 311.988281 262.421875 306.074219 270.410156 306.074219 Z M 273.414063 313.472656 C 277.300781 313.472656 280.449219 316.078125 280.449219 319.289063 C 280.449219 322.5 277.300781 325.109375 273.414063 325.109375 C 269.53125 325.109375 266.382813 322.5 266.382813 319.289063 C 266.382813 316.078125 269.53125 313.472656 273.414063 313.472656 Z M 155.769531 315.710938 C 154.585938 313.023438 152.035156 311.171875 149.085938 311.171875 C 146.132813 311.171875 144.359375 313.023438 143.171875 315.710938 Z M 149.085938 306.074219 C 159.65625 306.074219 165.550781 311.988281 165.550781 319.289063 C 165.550781 319.660156 165.53125 320.023438 165.496094 320.386719 L 142.558594 320.386719 C 143.125 324.164063 146.117188 327.046875 149.085938 327.046875 C 152.050781 327.046875 153.359375 325.964844 154.71875 324.25 L 164.347656 324.25 C 161.902344 329.089844 155.988281 332.5 149.085938 332.5 C 139.992188 332.5 132.621094 326.589844 132.621094 319.289063 C 132.621094 311.988281 138.511719 306.074219 149.085938 306.074219 Z M 438.527344 329.566406 C 439.804688 327.628906 441.082031 325.695313 442.363281 323.761719 C 444.328125 325.324219 446.648438 326.203125 449.757813 326.191406 C 452.160156 326.183594 454.027344 325.773438 453.996094 324.03125 C 453.972656 322.554688 451.730469 321.515625 449.425781 321.402344 C 444.378906 321.164063 440.730469 319.261719 440.613281 314.523438 C 440.503906 309.800781 444.453125 306.816406 450.496094 306.09375 C 455.425781 305.503906 459.472656 306.589844 463.011719 307.710938 C 461.820313 309.421875 460.632813 311.128906 459.445313 312.839844 C 457.679688 312.03125 455.871094 311.457031 453.996094 311.621094 C 452.496094 311.757813 451.359375 312.105469 450.703125 313.039063 C 450 314.035156 450.867188 315.269531 452.6875 315.652344 C 455.976563 316.355469 458.863281 316.515625 461.128906 318.101563 C 463.460938 319.734375 464.5 322.847656 463.414063 326.125 C 461.902344 330.671875 456.242188 332.34375 449.894531 332.398438 C 445.601563 332.433594 441.839844 331.105469 438.527344 329.566406 "/>
</g>
<g clip-path="url(#clip2)" clip-rule="nonzero">
<path style="fill:none;stroke-width:2.16;stroke-linecap:butt;stroke-linejoin:miter;stroke:rgb(13.699341%,12.199402%,12.5%);stroke-opacity:1;stroke-miterlimit:22.9256;" d="M 4682.851563 30.435938 C 4695.625 49.810938 4708.398438 69.146875 4721.171875 88.482813 C 4740.820313 72.857813 4763.984375 64.06875 4795.15625 64.185938 C 4819.140625 64.264063 4837.8125 68.365625 4837.539063 85.7875 C 4837.265625 100.553125 4814.84375 110.94375 4791.796875 112.076563 C 4741.328125 114.459375 4704.804688 133.482813 4703.632813 180.865625 C 4702.539063 228.092188 4742.070313 257.935938 4802.539063 265.1625 C 4851.796875 271.060938 4892.265625 260.201563 4927.617188 248.990625 C 4915.742188 231.88125 4903.867188 214.810938 4891.992188 197.701563 C 4874.335938 205.7875 4856.289063 211.529688 4837.539063 209.889063 C 4822.5 208.521875 4811.09375 205.045313 4804.570313 195.709375 C 4797.539063 185.748438 4806.25 173.404688 4824.414063 169.576563 C 4857.304688 162.545313 4886.210938 160.94375 4908.789063 145.084375 C 4932.148438 128.75625 4942.539063 97.623438 4931.640625 64.85 C 4916.601563 19.38125 4859.960938 2.6625 4796.484375 2.115625 C 4753.554688 1.764063 4715.9375 15.045313 4682.851563 30.435938 Z M 3334.960938 30.435938 C 3347.695313 49.810938 3360.46875 69.146875 3373.242188 88.482813 C 3392.96875 72.857813 3416.09375 64.06875 3447.265625 64.185938 C 3471.210938 64.264063 3489.921875 68.365625 3489.609375 85.7875 C 3489.375 100.553125 3466.953125 110.94375 3443.867188 112.076563 C 3393.398438 114.459375 3356.875 133.482813 3355.78125 180.865625 C 3354.6875 228.092188 3394.179688 257.935938 3454.648438 265.1625 C 3503.90625 271.060938 3544.335938 260.201563 3579.6875 248.990625 C 3567.8125 231.88125 3555.9375 214.810938 3544.023438 197.701563 C 3526.40625 205.7875 3508.359375 211.529688 3489.609375 209.889063 C 3474.609375 208.521875 3463.242188 205.045313 3456.640625 195.709375 C 3449.648438 185.748438 3458.320313 173.404688 3476.484375 169.576563 C 3509.414063 162.545313 3538.28125 160.94375 3560.859375 145.084375 C 3584.21875 128.75625 3594.609375 97.623438 3583.710938 64.85 C 3568.632813 19.38125 3512.109375 2.6625 3448.59375 2.115625 C 3405.625 1.764063 3368.046875 15.045313 3334.960938 30.435938 Z M 113.4375 207.857813 L 172.617188 207.857813 C 198.90625 207.857813 220.429688 229.38125 220.429688 255.709375 C 220.429688 281.959375 198.90625 303.482813 172.617188 303.482813 L 113.4375 303.482813 Z M 212.929688 376.959375 C 279.6875 376.959375 334.257813 322.389063 334.257813 255.709375 C 334.257813 188.990625 279.6875 134.38125 212.929688 134.38125 L 113.4375 134.38125 L 113.4375 9.732813 L 1.09375 9.732813 L 1.09375 376.998438 C 71.757813 376.998438 142.304688 376.959375 212.929688 376.959375 Z M 1022.226563 149.615625 L 946.367188 9.732813 L 883.242188 9.732813 L 727.734375 258.44375 L 841.953125 258.44375 L 914.023438 121.1 L 992.929688 258.44375 L 1051.523438 258.44375 L 1130.390625 121.1 L 1202.539063 258.44375 L 1316.71875 258.44375 L 1161.171875 9.732813 L 1098.125 9.732813 Z M 4331.054688 258.44375 L 4331.054688 9.732813 L 4226.289063 9.732813 L 4226.289063 258.44375 Z M 4226.289063 376.998438 L 4331.054688 376.998438 L 4331.054688 301.998438 L 4226.289063 301.998438 Z M 5101.445313 258.44375 L 5101.445313 9.732813 L 4996.71875 9.732813 L 4996.71875 258.44375 Z M 4996.71875 376.998438 L 5101.445313 376.998438 L 5101.445313 301.998438 L 4996.71875 301.998438 Z M 2977.695313 9.732813 L 2977.695313 258.44375 L 3077.460938 258.44375 L 3077.460938 221.88125 C 3106.132813 251.685938 3141.445313 269.889063 3188.125 264.029688 C 3237.265625 257.857813 3282.460938 232.389063 3282.460938 178.2875 L 3282.460938 9.732813 L 3184.296875 9.732813 L 3184.296875 153.209375 C 3184.296875 183.014063 3159.882813 205.201563 3130.078125 202.545313 C 3100.273438 199.810938 3075.898438 173.209375 3075.898438 143.365625 L 3075.898438 9.732813 Z M 3655.507813 9.732813 L 3655.507813 258.44375 L 3755.195313 258.44375 L 3755.195313 221.88125 C 3783.90625 251.685938 3819.140625 269.889063 3865.859375 264.029688 C 3902.890625 259.342188 3937.773438 243.717188 3952.65625 213.053125 L 3961.679688 221.88125 C 3988.789063 251.685938 4022.1875 269.889063 4066.40625 264.029688 C 4112.851563 257.857813 4155.664063 232.389063 4155.664063 178.2875 L 4155.664063 9.732813 L 4058.007813 9.732813 L 4058.007813 153.209375 C 4058.007813 183.014063 4034.921875 205.201563 4006.71875 202.545313 C 3978.515625 199.810938 3955.46875 173.209375 3955.46875 143.365625 L 3955.46875 9.732813 L 3859.023438 9.732813 L 3859.023438 153.209375 C 3859.023438 183.014063 3835.039063 205.201563 3805.625 202.545313 C 3776.289063 199.810938 3752.226563 173.209375 3752.226563 143.365625 L 3752.226563 9.732813 Z M 5557.421875 9.732813 L 5557.421875 258.44375 L 5657.226563 258.44375 L 5657.226563 221.88125 C 5685.859375 251.685938 5721.171875 269.889063 5767.890625 264.029688 C 5816.992188 257.857813 5862.226563 232.389063 5862.226563 178.2875 L 5862.226563 9.732813 L 5763.984375 9.732813 L 5763.984375 153.209375 C 5763.984375 183.014063 5739.6875 205.201563 5709.84375 202.545313 C 5680 199.810938 5655.664063 173.209375 5655.664063 143.365625 L 5655.664063 9.732813 Z M 2322.96875 9.732813 L 2322.96875 258.44375 L 2422.773438 258.44375 L 2422.773438 221.88125 C 2449.101563 249.303125 2494.882813 266.88125 2536.132813 264.967188 L 2536.132813 179.5375 C 2510.234375 189.264063 2495.390625 191.725 2475.390625 189.889063 C 2445.585938 187.19375 2421.210938 160.63125 2421.210938 130.826563 L 2421.210938 9.732813 Z M 1702.929688 9.732813 L 1702.929688 258.44375 L 1802.695313 258.44375 L 1802.695313 221.88125 C 1829.0625 249.303125 1874.804688 266.88125 1916.09375 264.967188 L 1916.09375 179.5375 C 1890.195313 189.264063 1875.390625 191.725 1855.351563 189.889063 C 1825.546875 187.19375 1801.171875 160.63125 1801.171875 130.826563 L 1801.171875 9.732813 Z M 2007.65625 297.81875 L 2103.515625 297.81875 L 2103.515625 9.732813 L 2213.476563 9.732813 L 2213.476563 297.81875 L 2309.296875 297.81875 L 2309.296875 376.998438 L 2007.65625 376.998438 Z M 540.976563 191.373438 C 578.046875 191.373438 608.125 165.31875 608.125 133.209375 C 608.125 101.1 578.046875 75.00625 540.976563 75.00625 C 503.867188 75.00625 473.789063 101.1 473.789063 133.209375 C 473.789063 165.31875 503.867188 191.373438 540.976563 191.373438 Z M 540.976563 265.357813 C 640.390625 265.357813 721.054688 206.217188 721.054688 133.209375 C 721.054688 60.201563 640.390625 1.1 540.976563 1.1 C 441.523438 1.1 360.820313 60.201563 360.820313 133.209375 C 360.820313 206.217188 441.523438 265.357813 540.976563 265.357813 Z M 5324.375 191.373438 C 5361.445313 191.373438 5391.523438 165.31875 5391.523438 133.209375 C 5391.523438 101.1 5361.445313 75.00625 5324.375 75.00625 C 5287.304688 75.00625 5257.226563 101.1 5257.226563 133.209375 C 5257.226563 165.31875 5287.304688 191.373438 5324.375 191.373438 Z M 5324.375 265.357813 C 5423.828125 265.357813 5504.492188 206.217188 5504.492188 133.209375 C 5504.492188 60.201563 5423.828125 1.1 5324.375 1.1 C 5224.921875 1.1 5144.296875 60.201563 5144.296875 133.209375 C 5144.296875 206.217188 5224.921875 265.357813 5324.375 265.357813 Z M 2704.101563 265.357813 C 2740.625 265.357813 2773.984375 252.935938 2799.453125 232.545313 L 2799.453125 258.44375 L 2902.773438 258.44375 L 2902.773438 9.732813 L 2799.453125 9.732813 L 2799.453125 33.873438 C 2773.984375 13.44375 2740.625 1.1 2704.101563 1.1 C 2624.21875 1.1 2559.453125 60.201563 2559.453125 133.209375 C 2559.453125 206.217188 2624.21875 265.357813 2704.101563 265.357813 Z M 2734.140625 191.373438 C 2773.007813 191.373438 2804.492188 165.31875 2804.492188 133.209375 C 2804.492188 101.1 2773.007813 75.00625 2734.140625 75.00625 C 2695.3125 75.00625 2663.828125 101.1 2663.828125 133.209375 C 2663.828125 165.31875 2695.3125 191.373438 2734.140625 191.373438 Z M 1557.695313 168.990625 C 1545.859375 195.865625 1520.351563 214.38125 1490.859375 214.38125 C 1461.328125 214.38125 1443.59375 195.865625 1431.71875 168.990625 Z M 1490.859375 265.357813 C 1596.5625 265.357813 1655.507813 206.217188 1655.507813 133.209375 C 1655.507813 129.498438 1655.3125 125.865625 1654.960938 122.232813 L 1425.585938 122.232813 C 1431.25 84.459375 1461.171875 55.63125 1490.859375 55.63125 C 1520.507813 55.63125 1533.59375 66.451563 1547.1875 83.6 L 1643.476563 83.6 C 1619.023438 35.201563 1559.882813 1.1 1490.859375 1.1 C 1399.921875 1.1 1326.210938 60.201563 1326.210938 133.209375 C 1326.210938 206.217188 1385.117188 265.357813 1490.859375 265.357813 Z M 4385.273438 30.435938 C 4398.046875 49.810938 4410.820313 69.146875 4423.632813 88.482813 C 4443.28125 72.857813 4466.484375 64.06875 4497.578125 64.185938 C 4521.601563 64.264063 4540.273438 68.365625 4539.960938 85.7875 C 4539.726563 100.553125 4517.304688 110.94375 4494.257813 112.076563 C 4443.789063 114.459375 4407.304688 133.482813 4406.132813 180.865625 C 4405.039063 228.092188 4444.53125 257.935938 4504.960938 265.1625 C 4554.257813 271.060938 4594.726563 260.201563 4630.117188 248.990625 C 4618.203125 231.88125 4606.328125 214.810938 4594.453125 197.701563 C 4576.796875 205.7875 4558.710938 211.529688 4539.960938 209.889063 C 4524.960938 208.521875 4513.59375 205.045313 4507.03125 195.709375 C 4500 185.748438 4508.671875 173.404688 4526.875 169.576563 C 4559.765625 162.545313 4588.632813 160.94375 4611.289063 145.084375 C 4634.609375 128.75625 4645 97.623438 4634.140625 64.85 C 4619.023438 19.38125 4562.421875 2.6625 4498.945313 2.115625 C 4456.015625 1.764063 4418.398438 15.045313 4385.273438 30.435938 Z M 4385.273438 30.435938 " transform="matrix(0.1,0,0,-0.1,0,332.61)"/>
</g>
</g>
</svg>
