<svg xmlns="http://www.w3.org/2000/svg" viewBox="0 0 289 92" width="289" height="92" shape-rendering="geometricPrecision">
<path d="M 212 0 L 212 3 L 218 3 L 221 4 L 224 7 L 225 9 L 225 84 L 224 86 L 221 89 L 212 91 L 259 90 L 253 90 L 249 88 L 247 85 L 246 80 L 247 51 L 257 50 L 266 50 L 278 46 L 281 43 L 282 43 L 284 41 L 288 34 L 288 16 L 285 11 L 279 6 L 270 2 L 266 2 L 265 0 Z M 247 6 L 255 6 L 261 9 L 263 11 L 266 16 L 267 20 L 267 31 L 266 35 L 264 39 L 260 43 L 256 45 L 252 46 L 246 45 Z" fill="#1e274b" fill-rule="evenodd" />
<path d="M 3 0 L 3 3 L 12 4 L 16 10 L 16 83 L 12 89 L 3 91 L 50 90 L 44 90 L 38 85 L 38 51 L 43 51 L 71 90 L 152 90 L 145 90 L 139 85 L 140 48 L 171 49 L 171 85 L 165 90 L 158 91 L 206 90 L 196 88 L 193 81 L 193 12 L 196 5 L 206 3 L 206 0 L 158 0 L 158 3 L 165 3 L 171 8 L 170 42 L 139 41 L 139 8 L 145 3 L 152 3 L 152 0 L 104 0 L 104 3 L 114 5 L 117 11 L 117 82 L 115 87 L 110 90 L 100 90 L 92 84 L 72 56 L 69 48 L 78 45 L 87 33 L 87 19 L 79 7 L 63 0 Z M 38 5 L 45 5 L 53 6 L 59 9 L 62 12 L 64 16 L 65 19 L 65 33 L 64 36 L 62 39 L 58 43 L 56 44 L 53 45 L 47 46 L 37 45 Z" fill="#1e274b" fill-rule="evenodd" />
</svg>