<svg xmlns="http://www.w3.org/2000/svg" viewBox="0 0 1938 925" width="1938" height="925">
<path d="M 9 45 L 4 739 L 1937 739 L 1937 66 L 1922 29 L 1893 8 L 64 4 L 32 16 Z M 1293 548 L 1292 430 L 1299 419 L 1315 412 L 1315 332 L 1299 324 L 1292 313 L 1292 200 L 1299 189 L 1767 187 L 1776 194 L 1778 267 L 1763 281 L 1602 280 L 1592 270 L 1592 241 L 1585 234 L 1434 237 L 1432 318 L 1436 324 L 1493 325 L 1510 302 L 1629 302 L 1640 316 L 1639 385 L 1626 396 L 1513 396 L 1501 388 L 1494 373 L 1437 373 L 1432 379 L 1432 410 L 1455 427 L 1453 550 L 1443 557 L 1305 557 Z M 743 192 L 750 187 L 896 189 L 902 197 L 905 321 L 1037 189 L 1171 188 L 1179 198 L 1179 269 L 1173 278 L 1041 281 L 995 326 L 1085 416 L 1218 419 L 1225 430 L 1223 550 L 1212 557 L 1040 556 L 902 423 L 902 547 L 895 555 L 747 555 L 740 546 L 740 427 L 763 410 L 763 333 L 740 316 Z M 260 191 L 620 189 L 626 197 L 626 270 L 620 278 L 501 281 L 487 271 L 486 239 L 480 234 L 403 234 L 396 240 L 396 319 L 403 325 L 666 327 L 672 335 L 671 549 L 660 557 L 217 555 L 210 546 L 210 428 L 221 417 L 343 419 L 350 429 L 350 503 L 357 509 L 525 509 L 532 503 L 532 378 L 527 373 L 269 373 L 259 367 Z" fill="#0068b7" fill-rule="evenodd"/>
<path d="M 4 787 L 10 885 L 34 913 L 70 924 L 1869 924 L 1915 906 L 1937 862 L 1937 787 Z" fill="#d80a30" fill-rule="evenodd"/>
</svg>